<?xml version="1.0" encoding="UTF-8"?>
<svg version="1.1" xmlns="http://www.w3.org/2000/svg" width="480" height="363">
<path d="M0 0 C-0.47947955 5.03453529 -2.09341452 7.91261417 -5 12 C-7.05217776 18.15653329 -7.49387114 27.01981791 -4.625 33 C4.2731276 43.16928869 18.44579573 45.56946943 31.09375 48.36328125 C54.06552749 53.47200063 74.59821269 61.80453777 88.16015625 82.2578125 C100.37486152 102.17474822 104.03210259 124.74128382 98.90625 147.5703125 C94.24988178 165.19225777 83.80799835 180.66655416 68 190 C51.88826324 199.15593444 51.88826324 199.15593444 43 199 C42 198 42 198 41.90234375 194.18359375 C41.90901911 192.60153318 41.92098125 191.01948841 41.9375 189.4375 C41.94201172 188.63119141 41.94652344 187.82488281 41.95117188 186.99414062 C41.96299482 184.99606244 41.98093086 182.99802217 42 181 C43.134375 180.43152344 44.26875 179.86304688 45.4375 179.27734375 C61.34271643 171.18011059 72.69794559 161.80918646 78.90625 144.46875 C83.12446829 130.25179207 82.52762418 114.05524837 75.84375 100.6875 C74.92289868 99.10889774 73.96550003 97.55169648 73 96 C73 95.01 73 94.02 73 93 C71.515 92.505 71.515 92.505 70 92 C69.71125 91.401875 69.4225 90.80375 69.125 90.1875 C67.63639801 87.29299613 65.57693571 85.94841481 63 84 C62.58105469 83.54496094 62.16210938 83.08992188 61.73046875 82.62109375 C50.56503787 72.16137859 34.34718322 68.35339381 19.70996094 66.15625 C5.67233726 63.9604206 -8.3789583 59.3817373 -17.59765625 48.015625 C-22.19631028 41.40586043 -23.7521398 33.98103898 -23 26 C-20.91673524 14.89513954 -14.75206587 7.80059173 -6 1 C-4 0 -4 0 0 0 Z " fill="#0F3051" transform="translate(213,80)"/>
<path d="M0 0 C4.85818038 2.19993074 6.9695383 5.03048875 9.3359375 9.609375 C11.0432234 15.75560425 9.91135472 20.90183392 7.88783264 26.74729919 C3.07924625 40.75472763 3.27658197 54.28287296 3.5625 68.9375 C3.58961355 71.48264183 3.61433652 74.02781021 3.63671875 76.57299805 C3.80369981 92.73804897 4.2315295 108.89217522 4.88427734 125.04443359 C5.07456898 129.90449793 5.22753236 134.76193015 5.3125 139.625 C5.35697266 140.83603394 5.35697266 140.83603394 5.40234375 142.0715332 C5.43847841 145.49039911 5.25956416 147.60664624 3.35546875 150.4921875 C0.38748047 152.39209376 -1.49125609 152.53508744 -5 152.5 C-6.546875 152.51546875 -6.546875 152.51546875 -8.125 152.53125 C-11.72533947 151.86596988 -12.73987333 150.83835448 -15 148 C-15.40509033 145.46130371 -15.40509033 145.46130371 -15.27050781 142.55273438 C-15.23018936 141.45224762 -15.18987091 140.35176086 -15.14833069 139.21792603 C-15.05170387 137.42395889 -15.05170387 137.42395889 -14.953125 135.59375 C-14.90284653 134.34129486 -14.85256805 133.08883972 -14.80076599 131.7984314 C-14.69104871 129.10116033 -14.57433646 126.40526297 -14.44589233 123.70892334 C-14.14546402 117.36388741 -13.91433004 111.01615453 -13.67754173 104.66848373 C-13.59748717 102.53455551 -13.51529602 100.40071663 -13.43293762 98.26687622 C-12.99361887 86.72674262 -12.72751226 75.19122055 -12.69641113 63.64233398 C-12.69054051 61.81922476 -12.67872474 59.99612351 -12.66052246 58.1730957 C-12.56733012 48.33326983 -12.91122327 39.45716781 -16 30 C-16.29592041 29.06760498 -16.59184082 28.13520996 -16.89672852 27.17456055 C-17.15768311 26.35383057 -17.4186377 25.53310059 -17.6875 24.6875 C-19.3607067 19.14555613 -19.64100566 14.95675412 -17.8125 9.375 C-13.47506998 1.29840617 -8.77990798 -1.02160818 0 0 Z " fill="#062A4E" transform="translate(244,191)"/>
<path d="M0 0 C10.51108183 7.32360575 16.04404023 17.25680621 18.8515625 29.5078125 C20.06940533 41.19910362 18.2457976 52.82711551 11.1640625 62.5078125 C0.85350349 74.26184977 0.85350349 74.26184977 -5.6484375 74.6953125 C-6.3703125 74.6334375 -7.0921875 74.5715625 -7.8359375 74.5078125 C-9.06750592 62.48291524 -9.06750592 62.48291524 -6.16015625 57.8203125 C-4.0234375 55.5703125 -4.0234375 55.5703125 -1.87890625 53.66796875 C2.73902289 48.78514883 3.70268239 43.14211177 3.6015625 36.6328125 C3.5869397 35.57900391 3.5869397 35.57900391 3.57202148 34.50390625 C3.28387519 26.04901016 1.06131703 21.04984478 -4.8984375 15.1328125 C-11.17743584 9.97579911 -17.94826983 8.09967389 -26.0234375 8.5703125 C-33.67453799 9.69976067 -38.57120536 12.93339023 -43.8359375 18.5078125 C-44.4959375 18.5078125 -45.1559375 18.5078125 -45.8359375 18.5078125 C-46.3162693 20.09079276 -46.79515362 21.67421228 -47.2734375 23.2578125 C-47.54027344 24.13953125 -47.80710938 25.02125 -48.08203125 25.9296875 C-50.3511555 33.68938702 -50.85912728 40.81242033 -47.8359375 48.5078125 C-45.49795778 52.45886761 -43.08985524 56.25389476 -39.8359375 59.5078125 C-38.74587102 64.84913824 -38.72528602 70.08588976 -38.8359375 75.5078125 C-46.91957816 74.55679595 -52.80443229 68.49149499 -57.8359375 62.5078125 C-64.9922428 51.962508 -67.23713578 41.03573825 -65.0859375 28.5703125 C-62.47538081 16.73216306 -55.92244102 6.39411308 -45.8359375 -0.4921875 C-30.37028466 -8.18525646 -15.18280502 -8.95946445 0 0 Z " fill="#1F3D5A" transform="translate(262.8359375,170.4921875)"/>
<path d="M0 0 C-0.875 4.75 -0.875 4.75 -2 7 C-2.66 7 -3.32 7 -4 7 C-4.25910156 7.69222656 -4.51820313 8.38445312 -4.78515625 9.09765625 C-6.14085493 12.33651195 -7.77512343 15.34512208 -9.4375 18.4375 C-17.40707989 33.97540285 -17.97356954 50.6576946 -12.68017578 67.11474609 C-6.47174304 84.32275673 7.37985443 93.33192854 23 101 C23.33 101.33 23.66 101.66 24 102 C23.90903444 104.86688248 23.76232012 107.70300515 23.5625 110.5625 C23.51029297 111.36880859 23.45808594 112.17511719 23.40429688 113.00585938 C23.27422624 115.00421738 23.13770944 117.00215386 23 119 C16.15938899 121.06015691 8.25811073 117.188514 2.09423828 114.02050781 C-15.85009302 103.84142043 -28.94966807 89.10291921 -34.55761719 69.0012207 C-38.43426968 53.29248579 -37.19721901 35.88826839 -29.25 21.6875 C-23.23999156 12.54509315 -16.55347982 6.35528915 -7 1 C-6.29359375 0.58621094 -5.5871875 0.17242187 -4.859375 -0.25390625 C-3 -1 -3 -1 0 0 Z " fill="#0A2C4F" transform="translate(201,160)"/>
<path d="M0 0 C3.00676674 1.05660784 3.95343377 1.92518868 5.66796875 4.6796875 C6.16941406 5.73414063 6.67085938 6.78859375 7.1875 7.875 C7.69667969 8.92429687 8.20585937 9.97359375 8.73046875 11.0546875 C11.74925431 18.05827001 12.02367302 24.80203958 9.5625 32.0625 C6.52052329 38.93908115 0.98616792 44.11590208 -6 46.9375 C-11.1564343 48.38348422 -16.50146339 48.37227758 -21.82104492 48.59423828 C-28.17575766 48.89822387 -33.05495529 49.58341191 -38.08984375 53.71484375 C-40.42030481 56.50281864 -40.98193577 58.71690456 -41.75 62.25 C-42.11351562 63.86648437 -42.11351562 63.86648437 -42.484375 65.515625 C-42.65453125 66.33546875 -42.8246875 67.1553125 -43 68 C-45.38671875 67.67578125 -45.38671875 67.67578125 -48 67 C-51.79818132 61.10627036 -51.64423144 54.83445525 -51 48 C-49.30090423 41.20361691 -44.67556387 36.8563654 -39 33 C-33.12640029 30.06361547 -27.29187611 29.3965162 -20.8125 28.9375 C-12.31110615 28.30568191 -6.91045115 27.73134714 -1 21 C1.12226887 14.63319338 0.19790618 7.50291925 -1 1 C-0.67 0.67 -0.34 0.34 0 0 Z " fill="#07294B" transform="translate(264,44)"/>
<path d="M0 0 C4.85818038 2.19993074 6.9695383 5.03048875 9.3359375 9.609375 C11.0432234 15.75560425 9.91135472 20.90183392 7.88783264 26.74729919 C3.07924625 40.75472763 3.27658197 54.28287296 3.5625 68.9375 C3.58961355 71.48264183 3.61433652 74.02781021 3.63671875 76.57299805 C3.80369981 92.73804897 4.2315295 108.89217522 4.88427734 125.04443359 C5.07456898 129.90449793 5.22753236 134.76193015 5.3125 139.625 C5.35697266 140.83603394 5.35697266 140.83603394 5.40234375 142.0715332 C5.43847841 145.49039911 5.25956416 147.60664624 3.35546875 150.4921875 C0.38748047 152.39209376 -1.49125609 152.53508744 -5 152.5 C-6.546875 152.51546875 -6.546875 152.51546875 -8.125 152.53125 C-11.72533947 151.86596988 -12.73987333 150.83835448 -15 148 C-15.40509033 145.46130371 -15.40509033 145.46130371 -15.27050781 142.55273438 C-15.23018936 141.45224762 -15.18987091 140.35176086 -15.14833069 139.21792603 C-15.05170387 137.42395889 -15.05170387 137.42395889 -14.953125 135.59375 C-14.90284653 134.34129486 -14.85256805 133.08883972 -14.80076599 131.7984314 C-14.69104871 129.10116033 -14.57433646 126.40526297 -14.44589233 123.70892334 C-14.14546402 117.36388741 -13.91433004 111.01615453 -13.67754173 104.66848373 C-13.59748717 102.53455551 -13.51529602 100.40071663 -13.43293762 98.26687622 C-12.99361887 86.72674262 -12.72751226 75.19122055 -12.69641113 63.64233398 C-12.69054051 61.81922476 -12.67872474 59.99612351 -12.66052246 58.1730957 C-12.56733012 48.33326983 -12.91122327 39.45716781 -16 30 C-16.29592041 29.06760498 -16.59184082 28.13520996 -16.89672852 27.17456055 C-17.15768311 26.35383057 -17.4186377 25.53310059 -17.6875 24.6875 C-19.3607067 19.14555613 -19.64100566 14.95675412 -17.8125 9.375 C-13.47506998 1.29840617 -8.77990798 -1.02160818 0 0 Z M-12 35 C-12 36.32 -12 37.64 -12 39 C-11.34 39 -10.68 39 -10 39 C-10.33 39.66 -10.66 40.32 -11 41 C-11.11307299 42.46395803 -11.16660612 43.93273837 -11.18945312 45.40087891 C-11.2062059 46.3196582 -11.22295868 47.2384375 -11.24021912 48.18505859 C-11.25375931 49.18875488 -11.2672995 50.19245117 -11.28125 51.2265625 C-11.29934219 52.26941406 -11.31743439 53.31226563 -11.33607483 54.38671875 C-11.37467467 56.63092736 -11.41118157 58.87517273 -11.4458313 61.1194458 C-11.53632256 66.97563232 -11.6411311 72.8315576 -11.74609375 78.6875 C-11.76655258 79.84488678 -11.78701141 81.00227356 -11.80809021 82.19473267 C-11.97498251 91.34183213 -12.23923761 100.48228381 -12.5625 109.625 C-13.0192404 122.7535118 -13.11663941 135.86460762 -13 149 C-11.04233719 149.08082094 -9.08373272 149.13910778 -7.125 149.1875 C-6.03445312 149.22230469 -4.94390625 149.25710938 -3.8203125 149.29296875 C-2.42425781 149.14794922 -2.42425781 149.14794922 -1 149 C2.81114009 143.28328986 2.13940815 136.69107714 2.11352539 130.04736328 C2.11367142 129.0613765 2.11381744 128.07538971 2.1139679 127.05952454 C2.11327339 123.81309784 2.10550262 120.56672912 2.09765625 117.3203125 C2.09579043 115.06444327 2.0943673 112.80857364 2.09336853 110.55270386 C2.08955627 104.62454097 2.07973701 98.6964027 2.06866455 92.76824951 C2.05842266 86.71529473 2.05386496 80.66233596 2.04882812 74.609375 C2.03811358 62.73957253 2.02105266 50.86978832 2 39 C1.34 39 0.68 39 0 39 C0 42.3 0 45.6 0 49 C-0.66 49 -1.32 49 -2 49 C-2.33 48.01 -2.66 47.02 -3 46 C-3 46.99 -3 47.98 -3 49 C-3.33 48.01 -3.66 47.02 -4 46 C-4.66 46 -5.32 46 -6 46 C-6.33 44.35 -6.66 42.7 -7 41 C-7.66 41 -8.32 41 -9 41 C-9.12375 40.195625 -9.2475 39.39125 -9.375 38.5625 C-9.684375 37.2940625 -9.684375 37.2940625 -10 36 C-10.66 35.67 -11.32 35.34 -12 35 Z " fill="#0E2F4F" transform="translate(244,191)"/>
<path d="M0 0 C-2.90600261 1.25664978 -4.79604584 2 -8 2 C-8 3.32 -8 4.64 -8 6 C-8.99 6 -9.98 6 -11 6 C-11 6.66 -11 7.32 -11 8 C-11.99 7.67 -12.98 7.34 -14 7 C-16.67676547 8.37249963 -16.67676547 8.37249963 -19 10 C-17.55245745 11.44754255 -15.96037087 11.55733561 -14 12 C-14.33 12.33 -14.66 12.66 -15 13 C-13.35 13 -11.7 13 -10 13 C-10 13.66 -10 14.32 -10 15 C-9.01 15.33 -8.02 15.66 -7 16 C-7.95117134 17.1725131 -8.91117009 18.33787015 -9.875 19.5 C-10.40867188 20.1496875 -10.94234375 20.799375 -11.4921875 21.46875 C-11.98976562 21.9740625 -12.48734375 22.479375 -13 23 C-13.66 23 -14.32 23 -15 23 C-15.4803318 24.58298026 -15.95921612 26.16639978 -16.4375 27.75 C-16.70433594 28.63171875 -16.97117188 29.5134375 -17.24609375 30.421875 C-19.515218 38.18157452 -20.02318978 45.30460783 -17 53 C-14.66202028 56.95105511 -12.25391774 60.74608226 -9 64 C-7.90993352 69.34132574 -7.88934852 74.57807726 -8 80 C-16.08364066 79.04898345 -21.96849479 72.98368249 -27 67 C-34.1563053 56.4546955 -36.40119828 45.52792575 -34.25 33.0625 C-31.63666381 21.2117463 -25.08239173 10.90551872 -15 4 C-4.38611389 -1.46203796 -4.38611389 -1.46203796 0 0 Z M-13 14 C-13.66 14.66 -14.32 15.32 -15 16 C-14.01 16 -13.02 16 -12 16 C-12 16.66 -12 17.32 -12 18 C-11.34 17.67 -10.68 17.34 -10 17 C-10.99 16.01 -11.98 15.02 -13 14 Z " fill="#2C4760" transform="translate(232,166)"/>
<path d="M0 0 C0.66 0.33 1.32 0.66 2 1 C1.9071875 2.8871875 1.9071875 2.8871875 1.8125 4.8125 C1.77388125 8.11199231 1.77388125 8.11199231 3.375 10.9375 C5.02249424 12.05923484 5.02249424 12.05923484 7 13 C7.33 12.34 7.66 11.68 8 11 C8.66 13.31 9.32 15.62 10 18 C9.01 18.495 9.01 18.495 8 19 C7.6470131 20.30219536 7.34313503 21.61781955 7.0625 22.9375 C3.79392914 33.13155765 -7.47443885 39.66393927 -16.55859375 44.4375 C-23.03940768 47.37998079 -28.95286913 48 -36 48 C-36 43.71 -36 39.42 -36 35 C-34.35 34.34 -32.7 33.68 -31 33 C-30.67 33.66 -30.34 34.32 -30 35 C-29.236875 34.525625 -28.47375 34.05125 -27.6875 33.5625 C-25 32 -25 32 -22 31 C-22.66 30.34 -23.32 29.68 -24 29 C-23 27 -23 27 -20 26 C-16.91556358 23.82275076 -15.02664425 22.03552567 -12.75 19 C-10.8244782 16.65344573 -10.19577204 16.06090686 -7.1875 15.125 C-6.1046875 15.063125 -6.1046875 15.063125 -5 15 C-5.33 14.01 -5.66 13.02 -6 12 C-4.78515625 9.08203125 -4.78515625 9.08203125 -3.0625 5.8125 C-2.49660156 4.72582031 -1.93070312 3.63914063 -1.34765625 2.51953125 C-0.68056641 1.27236328 -0.68056641 1.27236328 0 0 Z " fill="#07284B" transform="translate(292,229)"/>
<path d="M0 0 C0.33 0 0.66 0 1 0 C1.52671779 8.16412568 0.47835748 14.89553817 -4.953125 21.3046875 C-13.2319806 29.20723149 -20.85705926 30.13676358 -31.82104492 30.59423828 C-38.17575766 30.89822387 -43.05495529 31.58341191 -48.08984375 35.71484375 C-50.42030481 38.50281864 -50.98193577 40.71690456 -51.75 44.25 C-51.99234375 45.32765625 -52.2346875 46.4053125 -52.484375 47.515625 C-52.65453125 48.33546875 -52.8246875 49.1553125 -53 50 C-55.38671875 49.67578125 -55.38671875 49.67578125 -58 49 C-61.79818132 43.10627036 -61.64423144 36.83445525 -61 30 C-59.30920274 23.23681094 -54.65345475 18.85035955 -49 15 C-46.2109375 14.2734375 -46.2109375 14.2734375 -44 14 C-44.33 14.99 -44.66 15.98 -45 17 C-45.99 17 -46.98 17 -48 17 C-49.62750037 19.32323453 -49.62750037 19.32323453 -51 22 C-51.66 22.99 -52.32 23.98 -53 25 C-52.01 25 -51.02 25 -50 25 C-49.34 25.99 -48.68 26.98 -48 28 C-47.42507812 27.84402344 -46.85015625 27.68804687 -46.2578125 27.52734375 C-44.10265497 27.02397651 -42.07754277 26.75591325 -39.875 26.5625 C-39.01519531 26.48 -38.15539062 26.3975 -37.26953125 26.3125 C-35.45494025 26.13906239 -33.64033683 25.96575406 -31.82568359 25.79296875 C-29.40368411 25.55808407 -26.98313478 25.31102365 -24.5625 25.0625 C-23.7689209 24.98781494 -22.9753418 24.91312988 -22.15771484 24.83618164 C-16.65211919 24.25990491 -13.78898868 22.96941672 -10 19 C-9.34 19.33 -8.68 19.66 -8 20 C-6.68 18.68 -5.36 17.36 -4 16 C-4.66 15.67 -5.32 15.34 -6 15 C-6 14.34 -6 13.68 -6 13 C-5.34 13 -4.68 13 -4 13 C-3.67 10.36 -3.34 7.72 -3 5 C-2.34 5.66 -1.68 6.32 -1 7 C-0.67 4.69 -0.34 2.38 0 0 Z " fill="#455A6B" transform="translate(274,62)"/>
<path d="M0 0 C2.9375 1.25 2.9375 1.25 6 3 C6.875 5.1875 6.875 5.1875 7 7 C6.01 7.495 6.01 7.495 5 8 C5.09539062 8.88042969 5.19078125 9.76085937 5.2890625 10.66796875 C5.39992188 11.82941406 5.51078125 12.99085938 5.625 14.1875 C5.74101562 15.33605469 5.85703125 16.48460937 5.9765625 17.66796875 C6.00023426 21.03330416 5.47419799 23.01221706 4 26 C7.62326739 27.2077558 8.64146369 26.54311128 12 25 C12.66 25.99 13.32 26.98 14 28 C14.66 27.34 15.32 26.68 16 26 C15.28075282 35.3502134 9.71863675 41.73063502 3.28125 48.0546875 C0.02746941 50.82931547 -2.45743519 52.89716235 -6.8125 53.1875 C-7.534375 53.125625 -8.25625 53.06375 -9 53 C-10.23156842 40.97510274 -10.23156842 40.97510274 -7.32421875 36.3125 C-5.1875 34.0625 -5.1875 34.0625 -3.04296875 32.16015625 C1.65844868 27.18905904 2.47051453 21.59868682 2.3125 15 C2.31572266 14.32710937 2.31894531 13.65421875 2.32226562 12.9609375 C2.27246 8.27015339 1.44139206 4.41031515 0 0 Z " fill="#082948" transform="translate(264,192)"/>
<path d="M0 0 C-0.875 4.75 -0.875 4.75 -2 7 C-2.66 7 -3.32 7 -4 7 C-4.25910156 7.69222656 -4.51820313 8.38445312 -4.78515625 9.09765625 C-6.14085493 12.33651195 -7.77512343 15.34512208 -9.4375 18.4375 C-17.31667542 33.79914565 -17.0503174 49.3594292 -14 66 C-14.99 65.34 -15.98 64.68 -17 64 C-17.49243164 61.31030273 -17.49243164 61.31030273 -17.66015625 57.93359375 C-17.73169922 56.72638672 -17.80324219 55.51917969 -17.87695312 54.27539062 C-17.93818359 53.00888672 -17.99941406 51.74238281 -18.0625 50.4375 C-18.1906974 47.9357467 -18.32696586 45.43438931 -18.47265625 42.93359375 C-18.52687744 41.82040771 -18.58109863 40.70722168 -18.63696289 39.56030273 C-18.75676514 38.71540283 -18.87656738 37.87050293 -19 37 C-19.66 36.67 -20.32 36.34 -21 36 C-20.84660156 35.43796875 -20.69320312 34.8759375 -20.53515625 34.296875 C-19.98639581 31.94161122 -19.68502401 29.65451896 -19.4375 27.25 C-19.35371094 26.45078125 -19.26992187 25.6515625 -19.18359375 24.828125 C-19.09271484 23.92320312 -19.09271484 23.92320312 -19 23 C-22.96 23.495 -22.96 23.495 -27 24 C-25.52190058 14.92295356 -21.33338271 10.30585874 -14 5 C-4.10982659 -1.3699422 -4.10982659 -1.3699422 0 0 Z " fill="#052647" transform="translate(201,160)"/>
<path d="M0 0 C4.10979622 1.53731099 7.89396649 3.47308818 11.75 5.5625 C12.89984375 6.18253906 14.0496875 6.80257813 15.234375 7.44140625 C18 9 18 9 19 10 C18.90903444 12.86688248 18.76232012 15.70300515 18.5625 18.5625 C18.51029297 19.36880859 18.45808594 20.17511719 18.40429688 21.00585938 C18.27422624 23.00421738 18.13770944 25.00215386 18 27 C11.63228203 28.94037386 4.90764541 25.56795624 -1 23 C-4.83553227 20.88128343 -8.44759232 18.56275564 -12 16 C-11.67 15.34 -11.34 14.68 -11 14 C-7.62537285 14.54723683 -5.91765 15.0549 -3 17 C-3 16.34 -3 15.68 -3 15 C-1.68 15.33 -0.36 15.66 1 16 C1.433125 15.071875 1.433125 15.071875 1.875 14.125 C3 12 3 12 5 10 C4.34 9.01 3.68 8.02 3 7 C2.66666667 5.66666667 2.33333333 4.33333333 2 3 C1.34 2.01 0.68 1.02 0 0 Z " fill="#15324C" transform="translate(206,252)"/>
<path d="M0 0 C0.33 0 0.66 0 1 0 C1.01030746 0.64748199 1.02061493 1.29496399 1.03123474 1.96206665 C1.16272584 10.18311096 1.29873344 18.40407536 1.4375 26.625 C1.45956512 27.93286469 1.48163025 29.24072937 1.50436401 30.58822632 C1.75349051 45.16735181 2.02053613 59.74101723 2.5625 74.3125 C2.71165515 78.54155764 2.85746336 82.7707143 3 87 C3.05317383 88.51907959 3.05317383 88.51907959 3.10742188 90.06884766 C3.19800749 92.92090803 3.26031596 95.77201289 3.3125 98.625 C3.342229 99.43235596 3.37195801 100.23971191 3.40258789 101.0715332 C3.4383456 104.49034639 3.25954849 106.60666998 1.35546875 109.4921875 C-1.61251953 111.39209376 -3.49125609 111.53508744 -7 111.5 C-8.546875 111.51546875 -8.546875 111.51546875 -10.125 111.53125 C-13.72620505 110.86580994 -14.73962816 109.83956996 -17 107 C-17.41181946 104.44784546 -17.41181946 104.44784546 -17.28637695 101.52099609 C-17.2492308 100.41419495 -17.21208466 99.3073938 -17.17381287 98.16705322 C-17.11258743 96.96466003 -17.051362 95.76226685 -16.98828125 94.5234375 C-16.94087296 93.26497009 -16.89346466 92.00650269 -16.84461975 90.7098999 C-16.74015398 88.00289549 -16.6284489 85.29740378 -16.50384521 82.59136963 C-16.30967413 78.37265882 -16.14247589 74.15317733 -15.98095703 69.93310547 C-15.81754323 65.68925478 -15.65299264 61.44548658 -15.47894287 57.20205688 C-14.97375969 44.84576007 -14.63894049 32.48864539 -14.375 20.125 C-14.33524475 18.34683791 -14.29529401 16.56868018 -14.25512695 14.79052734 C-14.16698217 10.86041288 -14.08220029 6.9302431 -14 3 C-13.67 3 -13.34 3 -13 3 C-12.68229635 38.05248796 -13.56182439 72.97889397 -15 108 C-9.06 107.505 -9.06 107.505 -3 107 C-1.221297 100.87437174 -0.69647099 95.36457172 -0.68115234 89.00390625 C-0.67110672 88.03713455 -0.6610611 87.07036285 -0.65071106 86.07429504 C-0.62001354 82.90370231 -0.60288134 79.7331935 -0.5859375 76.5625 C-0.56721505 74.35432215 -0.54764084 72.14615137 -0.5272522 69.93798828 C-0.47603887 64.14471618 -0.43635537 58.35142092 -0.39910889 52.55804443 C-0.35900146 46.63889892 -0.3079399 40.71984889 -0.2578125 34.80078125 C-0.16118109 23.20058801 -0.07673548 11.60034072 0 0 Z " fill="#B0B8B7" transform="translate(246,232)"/>
<path d="M0 0 C0 0.66 0 1.32 0 2 C1.32 2.33 2.64 2.66 4 3 C2.375 4.1875 2.375 4.1875 0 5 C-3.25 3.625 -3.25 3.625 -6 2 C-6 1.34 -6 0.68 -6 0 C-8.97 0 -11.94 0 -15 0 C-15.66 1.32 -16.32 2.64 -17 4 C-16.2575 3.95875 -15.515 3.9175 -14.75 3.875 C-11.84411892 4.0070855 -10.35769668 4.31593094 -8 6 C-7.390625 8.078125 -7.390625 8.078125 -7 10 C-7.54938232 9.92370361 -8.09876465 9.84740723 -8.66479492 9.76879883 C-11.17026593 9.43147817 -13.67842085 9.12178839 -16.1875 8.8125 C-17.48397461 8.63170898 -17.48397461 8.63170898 -18.80664062 8.44726562 C-24.02583904 7.82181744 -24.02583904 7.82181744 -28.98828125 9.32421875 C-31.05363641 10.99315242 -31.05363641 10.99315242 -33 13 C-33.5775 12.67 -34.155 12.34 -34.75 12 C-37.19883862 10.72924102 -37.19883862 10.72924102 -41 11 C-41 10.34 -41 9.68 -41 9 C-41.66 8.67 -42.32 8.34 -43 8 C-43.33 8.66 -43.66 9.32 -44 10 C-44.33 9.01 -44.66 8.02 -45 7 C-42.82575883 4.49962266 -41.26954202 3.56371414 -38 3 C-38 3.66 -38 4.32 -38 5 C-37.34 5 -36.68 5 -36 5 C-36 4.34 -36 3.68 -36 3 C-35.01 3 -34.02 3 -33 3 C-33 1.68 -33 0.36 -33 -1 C-22.36169795 -6.00625979 -10.47818631 -5.23909315 0 0 Z M-38 11 C-37.01 11.99 -36.02 12.98 -35 14 C-35.99 14.495 -35.99 14.495 -37 15 C-37 14.34 -37 13.68 -37 13 C-37.99 12.67 -38.98 12.34 -40 12 C-39.34 11.67 -38.68 11.34 -38 11 Z " fill="#06294A" transform="translate(257,169)"/>
<path d="M0 0 C0.61875 0.33 1.2375 0.66 1.875 1 C3.91018344 2.14193235 3.91018344 2.14193235 6 2 C6.33 1.34 6.66 0.68 7 0 C8.27200971 1.10281127 9.54255853 2.20730769 10.8125 3.3125 C11.52019531 3.92738281 12.22789062 4.54226562 12.95703125 5.17578125 C17.41668933 9.15792336 18.49892649 10.78668848 19 17 C19.06682577 20.00238653 19.06127304 22.99762108 19 26 C14.48349806 25.46864683 11.57941844 23.76591425 8 21 C7.67 20.01 7.34 19.02 7 18 C7.33 17.34 7.66 16.68 8 16 C7.236875 15.7525 6.47375 15.505 5.6875 15.25 C2.64139849 13.8332086 1.7049686 12.85483114 0 10 C-0.29296875 7.421875 -0.29296875 7.421875 -0.1875 4.75 C-0.16042969 3.85796875 -0.13335937 2.9659375 -0.10546875 2.046875 C-0.07066406 1.37140625 -0.03585938 0.6959375 0 0 Z " fill="#0F3152" transform="translate(205,220)"/>
<path d="M0 0 C12.86771181 -0.54455834 24.44778612 1.21687635 34.33984375 10.1015625 C36.27630253 12.02781148 38.16114777 13.98076989 40 16 C39.67 16.66 39.34 17.32 39 18 C36.50638429 16.79618552 34.31856917 15.54571278 32 14 C32 13.34 32 12.68 32 12 C30.68 12 29.36 12 28 12 C28 12.66 28 13.32 28 14 C26.02 13.67 24.04 13.34 22 13 C22 13.99 22 14.98 22 16 C22.99 16 23.98 16 25 16 C26.25664978 18.90600261 27 20.79604584 27 24 C25.6078125 22.6078125 25.6078125 22.6078125 24.1875 21.1875 C19.01700064 16.78840579 13.07567035 15.03559537 6.31640625 14.9765625 C1.35277538 15.38453216 -3.27374537 16.45883001 -8 18 C-8 17.01 -8 16.02 -8 15 C-2.10624306 10.79017362 4.11705318 11.88903892 11 13 C13.01450899 13.6214483 15.02022559 14.27547413 17 15 C16.67 13.68 16.34 12.36 16 11 C13.03 10.34 10.06 9.68 7 9 C8 5 8 5 9 4 C15.52542373 3.76271186 15.52542373 3.76271186 18 5 C18 5.66 18 6.32 18 7 C18.5775 7.144375 19.155 7.28875 19.75 7.4375 C21.23549633 7.80887408 22.71520052 8.20434301 24.1875 8.625 C24.785625 8.74875 25.38375 8.8725 26 9 C26.33 8.67 26.66 8.34 27 8 C25.35 7.34 23.7 6.68 22 6 C22 5.34 22 4.68 22 4 C14.68925318 2.33405548 7.47834967 1.48827713 0 1 C0 0.67 0 0.34 0 0 Z " fill="#304C67" transform="translate(233,164)"/>
<path d="M0 0 C-0.47947955 5.03453529 -2.09341452 7.91261417 -5 12 C-6.15570704 15.46712111 -6.32835293 18.5414956 -6.5625 22.1875 C-6.64628906 23.45980469 -6.73007813 24.73210937 -6.81640625 26.04296875 C-6.90728516 27.50669922 -6.90728516 27.50669922 -7 29 C-8.96459918 26.05310123 -9.23098617 25.30422132 -9.4375 22 C-9.7599189 18.73661594 -9.7599189 18.73661594 -11.5625 16 C-12.036875 15.67 -12.51125 15.34 -13 15 C-13.66 16.32 -14.32 17.64 -15 19 C-15.66 19 -16.32 19 -17 19 C-17 20.65 -17 22.3 -17 24 C-17.99 24 -18.98 24 -20 24 C-20.43342428 32.57216909 -20.42864933 38.5712979 -16 46 C-16.33 46.66 -16.66 47.32 -17 48 C-21.98964003 41.34714663 -23.9679472 34.38887574 -23 26 C-20.88816381 14.89067684 -14.76697192 7.81217413 -6 1 C-4 0 -4 0 0 0 Z " fill="#122A3D" transform="translate(213,80)"/>
<path d="M0 0 C1.5 1.3125 1.5 1.3125 3 3 C3 3.99 3 4.98 3 6 C3.66 6 4.32 6 5 6 C4.835 7.16917969 4.67 8.33835938 4.5 9.54296875 C3.73185669 16.44949675 3.93011061 23.3743142 4 30.3125 C4.02668074 32.99613819 4.04653318 35.67952514 4.0625 38.36328125 C4.07410156 39.54188721 4.08570313 40.72049316 4.09765625 41.93481445 C4 45 4 45 3.50772095 46.8037262 C2.85350509 49.63370033 2.82763081 52.30084323 2.77880859 55.20556641 C2.75563568 56.46011627 2.73246277 57.71466614 2.70858765 59.00723267 C2.68828454 60.37200554 2.66824066 61.73678228 2.6484375 63.1015625 C2.62531106 64.50353418 2.60192063 65.90550153 2.57827759 67.3074646 C2.5299042 70.24107008 2.48495847 73.17470327 2.44238281 76.10839844 C2.38744587 79.87254719 2.32362191 83.63648432 2.25720787 87.40044594 C2.20720017 90.29308769 2.16205044 93.18578963 2.11836624 96.07853317 C2.09677848 97.46686664 2.0736278 98.8551767 2.0489006 100.24345779 C2.0151022 102.17996578 1.9885736 104.11659657 1.96240234 106.05322266 C1.94543304 107.15590485 1.92846375 108.25858704 1.91098022 109.39468384 C1.8184243 111.98385639 1.8184243 111.98385639 3 114 C1.68 114 0.36 114 -1 114 C-1.12810754 99.57312044 -0.93581633 85.18337409 -0.42602539 70.76513672 C-0.11519071 61.74028735 0.09430595 52.7163282 0.25390625 43.6875 C0.27464706 42.53035492 0.29538788 41.37320984 0.3167572 40.18099976 C0.42014198 34.34943075 0.5171397 28.51782488 0.60717773 22.68603516 C0.64421157 20.5328749 0.68139541 18.37971722 0.71875 16.2265625 C0.73229019 15.22286621 0.74583038 14.21916992 0.75978088 13.18505859 C0.77653366 12.2662793 0.79328644 11.3475 0.81054688 10.40087891 C0.82307495 9.59582916 0.83560303 8.79077942 0.84851074 7.96133423 C1 6 1 6 2 4 C1.34 4 0.68 4 0 4 C0 2.68 0 1.36 0 0 Z " fill="#122739" transform="translate(232,226)"/>
<path d="M0 0 C4.25259332 1.49165038 5.38771562 3.99718458 7.3125 7.9375 C7.84488281 8.99839844 8.37726563 10.05929688 8.92578125 11.15234375 C10 14 10 14 9 17 C8.505 14.525 8.505 14.525 8 12 C7.01 12 6.02 12 5 12 C5 13.32 5 14.64 5 16 C4.01 16 3.02 16 2 16 C2.0928125 17.60875 2.0928125 17.60875 2.1875 19.25 C1.99365905 23.126819 1.73628314 24.36506068 -1 27 C-1.99 27.33 -2.98 27.66 -4 28 C-3.34 28.33 -2.68 28.66 -2 29 C-2.33 29.66 -2.66 30.32 -3 31 C-11.92760877 33.57096263 -20.73026665 34.46607598 -30 34 C-30 33.34 -30 32.68 -30 32 C-31.32 31.67 -32.64 31.34 -34 31 C-32.12516849 30.70725222 -30.25012067 30.41588984 -28.375 30.125 C-27.19679687 29.93808594 -26.01859375 29.75117187 -24.8046875 29.55859375 C-22.27520068 29.18722145 -19.73773951 28.8665166 -17.1953125 28.59765625 C-15.97585937 28.46230469 -14.75640625 28.32695313 -13.5 28.1875 C-12.3759375 28.07792969 -11.251875 27.96835938 -10.09375 27.85546875 C-5.52000257 26.59075829 -3.25869663 23.9126141 -0.69921875 20.0234375 C1.34175283 14.1171622 0.10537555 7.00061014 -1 1 C-0.67 0.67 -0.34 0.34 0 0 Z " fill="#57626A" transform="translate(264,44)"/>
<path d="M0 0 C0 3.20395416 -0.74335022 5.09399739 -2 8 C-0.8553125 7.7525 -0.8553125 7.7525 0.3125 7.5 C3 7 3 7 6 7 C6.33 6.34 6.66 5.68 7 5 C6.67 9.29 6.34 13.58 6 18 C5.34 17.67 4.68 17.34 4 17 C3.01 19.31 2.02 21.62 1 24 C-1.64 24 -4.28 24 -7 24 C-6.814375 23.195625 -6.62875 22.39125 -6.4375 21.5625 C-6.2209375 20.2940625 -6.2209375 20.2940625 -6 19 C-6.33 18.67 -6.66 18.34 -7 18 C-7.66 19.98 -8.32 21.96 -9 24 C-10.91742834 18.62368133 -8.24817967 13.93405805 -6 9 C-4.15550999 5.87648406 -2.15858502 2.91408978 0 0 Z " fill="#284766" transform="translate(176,176)"/>
<path d="M0 0 C2.9375 1.25 2.9375 1.25 6 3 C6.875 5.1875 6.875 5.1875 7 7 C6.01 7.495 6.01 7.495 5 8 C5.09539062 8.88042969 5.19078125 9.76085937 5.2890625 10.66796875 C5.39992188 11.82941406 5.51078125 12.99085938 5.625 14.1875 C5.74101562 15.33605469 5.85703125 16.48460937 5.9765625 17.66796875 C6.00023426 21.03330416 5.47419799 23.01221706 4 26 C7.62326739 27.2077558 8.64146369 26.54311128 12 25 C12.66 25.99 13.32 26.98 14 28 C14.66 27.34 15.32 26.68 16 26 C15.28380366 35.31055246 9.70133554 41.99390389 3 48 C2.67 46.68 2.34 45.36 2 44 C2.66 44 3.32 44 4 44 C3.505 42.515 3.505 42.515 3 41 C3.78375 40.938125 4.5675 40.87625 5.375 40.8125 C6.24125 40.544375 7.1075 40.27625 8 40 C9.31068333 37.55711372 9.31068333 37.55711372 10 35 C10.33 34.67 10.66 34.34 11 34 C6.56906802 32.18698242 6.56906802 32.18698242 2 33 C1.67 33.66 1.34 34.32 1 35 C-0.6476038 35.71247732 -2.31763529 36.37400383 -4 37 C-5.33859725 37.65603325 -6.67294976 38.32091246 -8 39 C-7.41992188 38.27296875 -7.41992188 38.27296875 -6.828125 37.53125 C-5.16426419 35.38964698 -3.5726442 33.20937331 -2 31 C-1.36191406 30.13375 -1.36191406 30.13375 -0.7109375 29.25 C3.44051065 22.5598965 3.26049092 12.48952929 1.52832031 4.94580078 C1.05670997 3.2859828 0.5334783 1.64097926 0 0 Z " fill="#123354" transform="translate(264,192)"/>
<path d="M0 0 C1.0625 1.875 1.0625 1.875 2 4 C1 6 1 6 -0.9375 8.75 C-3.52167069 12.82202654 -5.26120068 15.99746143 -4.625 20.875 C-4.41875 21.57625 -4.2125 22.2775 -4 23 C-4.66 22.34 -5.32 21.68 -6 21 C-9.32310483 22.16757737 -11.83361132 23.14948857 -14 26 C-14 26.99 -14 27.98 -14 29 C-15.175625 29.433125 -15.175625 29.433125 -16.375 29.875 C-19.09671632 30.84912254 -19.09671632 30.84912254 -21 33 C-21 33.99 -21 34.98 -21 36 C-24.2678206 38.17854707 -27.38058265 39.49760034 -31 41 C-31 40.01 -31 39.02 -31 38 C-32.65 38.66 -34.3 39.32 -36 40 C-36 44.29 -36 48.58 -36 53 C-33.525 52.505 -33.525 52.505 -31 52 C-29.0003559 51.96227087 -26.99945939 51.95350094 -25 52 C-27.37555161 54.37555161 -28.30296994 54.36834858 -31.5625 54.6875 C-32.36816406 54.77386719 -33.17382812 54.86023438 -34.00390625 54.94921875 C-34.66261719 54.96597656 -35.32132812 54.98273438 -36 55 C-37 54 -37 54 -37.09765625 50.18359375 C-37.09098089 48.60153318 -37.07901875 47.01948841 -37.0625 45.4375 C-37.05798828 44.63119141 -37.05347656 43.82488281 -37.04882812 42.99414062 C-37.03700518 40.99606244 -37.01906914 38.99802217 -37 37 C-35.865625 36.43152344 -34.73125 35.86304688 -33.5625 35.27734375 C-17.59419324 27.14799175 -5.89529774 17.68589321 0 0 Z " fill="#9CA5A9" transform="translate(292,224)"/>
<path d="M0 0 C2.31 0.66 4.62 1.32 7 2 C7 1.34 7 0.68 7 0 C11 0 11 0 12.5 1.375 C12.995 1.91125 13.49 2.4475 14 3 C14.66 3.309375 15.32 3.61875 16 3.9375 C18.47830538 5.25409974 19.60530898 6.5776419 21 9 C20.67 9.99 20.34 10.98 20 12 C17.9375 12.6875 17.9375 12.6875 16 13 C16 13.66 16 14.32 16 15 C15.34 15 14.68 15 14 15 C14 15.66 14 16.32 14 17 C14.66 17 15.32 17 16 17 C15.67 17.66 15.34 18.32 15 19 C10.41816218 17.47272073 7.93426859 14.32086249 5.1875 10.4375 C4 8 4 8 4 4 C3.01 4 2.02 4 1 4 C0.67 2.68 0.34 1.36 0 0 Z " fill="#102A45" transform="translate(254,176)"/>
<path d="M0 0 C0.66 0.99 1.32 1.98 2 3 C2.51175781 3.75539062 3.02351563 4.51078125 3.55078125 5.2890625 C8.41419036 14.38665259 7.25429151 26.91310333 7 37 C6.34 37 5.68 37 5 37 C4.67 40.3 4.34 43.6 4 47 C2 45 2 45 1.77294922 41.83544922 C1.77326611 40.49182037 1.78457819 39.1481659 1.8046875 37.8046875 C1.8075174 37.09724396 1.81034729 36.38980042 1.81326294 35.66091919 C1.82446863 33.3987749 1.84957321 31.13702485 1.875 28.875 C1.88502933 27.34245363 1.89415526 25.80990106 1.90234375 24.27734375 C1.92440914 20.51807699 1.95894104 16.75910536 2 13 C1.34 13 0.68 13 0 13 C-0.99 9.7 -1.98 6.4 -3 3 C-2.01 2.01 -1.02 1.02 0 0 Z " fill="#112B3A" transform="translate(307,179)"/>
<path d="M0 0 C0.66 0 1.32 0 2 0 C2 28.71 2 57.42 2 87 C1.67 87 1.34 87 1 87 C0.71027526 79.49603823 0.43170931 71.99172437 0.16588497 64.48687935 C0.04201876 60.998852 -0.08513515 57.51102176 -0.22094727 54.0234375 C-0.92115692 35.96825552 -1.026013 18.05260415 0 0 Z " fill="#142A39" transform="translate(244,230)"/>
<path d="M0 0 C-2.90600261 1.25664978 -4.79604584 2 -8 2 C-8 3.32 -8 4.64 -8 6 C-8.99 6 -9.98 6 -11 6 C-11 6.66 -11 7.32 -11 8 C-11.99 7.67 -12.98 7.34 -14 7 C-16.67676547 8.37249963 -16.67676547 8.37249963 -19 10 C-17.55245745 11.44754255 -15.96037087 11.55733561 -14 12 C-14.33 12.33 -14.66 12.66 -15 13 C-13.35 13 -11.7 13 -10 13 C-10 13.66 -10 14.32 -10 15 C-9.01 15.33 -8.02 15.66 -7 16 C-7.95117134 17.1725131 -8.91117009 18.33787015 -9.875 19.5 C-10.40867188 20.1496875 -10.94234375 20.799375 -11.4921875 21.46875 C-11.98976562 21.9740625 -12.48734375 22.479375 -13 23 C-13.66 23 -14.32 23 -15 23 C-15.66 24.32 -16.32 25.64 -17 27 C-17.95024979 23.30458414 -17.95024979 20.69541586 -17 17 C-19.21081851 16.89459074 -19.21081851 16.89459074 -22 18 C-21.34 16.02 -20.68 14.04 -20 12 C-21.98 13.32 -23.96 14.64 -26 16 C-21.9684083 7.18451001 -14.74152009 3.36854755 -6 0 C-3 -1 -3 -1 0 0 Z M-13 14 C-13.66 14.66 -14.32 15.32 -15 16 C-14.01 16 -13.02 16 -12 16 C-12 16.66 -12 17.32 -12 18 C-11.34 17.67 -10.68 17.34 -10 17 C-10.99 16.01 -11.98 15.02 -13 14 Z " fill="#354E61" transform="translate(232,166)"/>
<path d="M0 0 C0 3.90653975 -1.4396564 5.8886472 -3.3125 9.3125 C-11.3166168 24.70410529 -11.06517571 40.2783718 -8 57 C-8.99 56.34 -9.98 55.68 -11 55 C-11.49243164 52.31030273 -11.49243164 52.31030273 -11.66015625 48.93359375 C-11.73169922 47.72638672 -11.80324219 46.51917969 -11.87695312 45.27539062 C-11.93818359 44.00888672 -11.99941406 42.74238281 -12.0625 41.4375 C-12.1906974 38.9357467 -12.32696586 36.43438931 -12.47265625 33.93359375 C-12.52687744 32.82040771 -12.58109863 31.70722168 -12.63696289 30.56030273 C-12.75676514 29.71540283 -12.87656738 28.87050293 -13 28 C-13.66 27.67 -14.32 27.34 -15 27 C-14.33333333 24.33333333 -13.66666667 21.66666667 -13 19 C-12.34 19 -11.68 19 -11 19 C-10.67 16.69 -10.34 14.38 -10 12 C-9.34 12 -8.68 12 -8 12 C-7.67 10.02 -7.34 8.04 -7 6 C-5.68 5.67 -4.36 5.34 -3 5 C-3 3.68 -3 2.36 -3 1 C-2.01 0.67 -1.02 0.34 0 0 Z " fill="#78878E" transform="translate(195,169)"/>
<path d="M0 0 C0.66 0 1.32 0 2 0 C1.49396008 2.16874252 1.00016187 3.99967627 0 6 C1.65 5.01 3.3 4.02 5 3 C6.125 8.75 6.125 8.75 5 11 C4.7834375 12.3303125 4.7834375 12.3303125 4.5625 13.6875 C4 17 4 17 3 20.1875 C1.7119656 25.09813115 1.34719465 29.94740424 1 35 C0.34 35 -0.32 35 -1 35 C-1.16220391 22.00566426 -1.16220391 22.00566426 -0.375 17.125 C0.12483629 12.95969762 -0.80529688 10.00576927 -2 6 C-2.66 6 -3.32 6 -4 6 C-2.84826645 3.53199953 -1.95216435 1.95216435 0 0 Z " fill="#0F2639" transform="translate(210,178)"/>
<path d="M0 0 C5.86595165 -0.26123671 10.98683423 0.75329767 16.6875 2.0625 C23.66231122 3.59542554 29.57595826 4.37451988 36.6875 2.96875 C39 3 39 3 41.3125 4.96875 C41.869375 5.6390625 42.42625 6.309375 43 7 C42.34 7 41.68 7 41 7 C41 7.99 41 8.98 41 10 C45.455 10.99 45.455 10.99 50 12 C50.495 13.98 50.495 13.98 51 16 C47.53303015 14.64931336 44.17379793 13.15626165 40.8125 11.5625 C31.88192529 7.52360613 23.15700898 5.54683903 13.50756836 4.08935547 C8.86641891 3.37751341 4.48836688 2.38515163 0 1 C0 0.67 0 0.34 0 0 Z " fill="#818E94" transform="translate(219,142)"/>
<path d="M0 0 C0.391875 0.556875 0.78375 1.11375 1.1875 1.6875 C10.05805036 13.00509873 23.30963641 16.43145148 37 19 C37 19.33 37 19.66 37 20 C33.37 20 29.74 20 26 20 C26 19.34 26 18.68 26 18 C18.31516461 17.32546899 10.71589817 16.8432436 3 17 C4.375 15 4.375 15 6 13 C6.66 13 7.32 13 8 13 C7.67 12.34 7.34 11.68 7 11 C6.01 10.67 5.02 10.34 4 10 C3.67 9.34 3.34 8.68 3 8 C2.67 8.66 2.34 9.32 2 10 C1.34 10 0.68 10 0 10 C-1.0625 8.1875 -1.0625 8.1875 -2 6 C-1.33333333 4 -0.66666667 2 0 0 Z " fill="#6A7A84" transform="translate(206,109)"/>
<path d="M0 0 C0.66 0.99 1.32 1.98 2 3 C2.33 2.67 2.66 2.34 3 2 C3.99 1.67 4.98 1.34 6 1 C6.33 2.32 6.66 3.64 7 5 C6.34 5 5.68 5 5 5 C5 5.66 5 6.32 5 7 C5.99 6.67 6.98 6.34 8 6 C6.8141763 9.37503669 5.72426311 11.64722731 3 14 C1 13 1 13 0 12 C-1.99422795 11.63371323 -3.99453311 11.29868656 -6 11 C-6 10.34 -6 9.68 -6 9 C-5.01 8.67 -4.02 8.34 -3 8 C-3.66 7.67 -4.32 7.34 -5 7 C-5 6.34 -5 5.68 -5 5 C-4.01 5 -3.02 5 -2 5 C-2.83333333 2.83333333 -2.83333333 2.83333333 -5 2 C-3.35 1.34 -1.7 0.68 0 0 Z " fill="#052346" transform="translate(263,70)"/>
<path d="M0 0 C1.0625 1.875 1.0625 1.875 2 4 C1.67 4.66 1.34 5.32 1 6 C0.77760311 7.95643473 0.60784146 9.91897725 0.46484375 11.8828125 C0.37783203 13.04941406 0.29082031 14.21601563 0.20117188 15.41796875 C0.11416016 16.64128906 0.02714844 17.86460937 -0.0625 19.125 C-0.19881836 20.97158203 -0.19881836 20.97158203 -0.33789062 22.85546875 C-0.56235003 25.90339115 -0.78288542 28.95154703 -1 32 C0.32 32 1.64 32 3 32 C3.99 32.33 4.98 32.66 6 33 C5.4409112 36.24271506 4.5867822 37.93057424 2 40 C1.34 40 0.68 40 0 40 C-0.38218767 38.34385343 -0.71395102 36.67542976 -1 35 C-0.505 34.505 -0.505 34.505 0 34 C-0.66 33.67 -1.32 33.34 -2 33 C-3.58348315 28.42633496 -3.22355779 23.52943012 -3.25 18.75 C-3.270625 17.83347656 -3.29125 16.91695312 -3.3125 15.97265625 C-3.34695891 9.93373172 -2.46272028 5.52167811 0 0 Z " fill="#1B2E3C" transform="translate(169,192)"/>
<path d="M0 0 C-0.33 0.99 -0.66 1.98 -1 3 C-10.16899261 5.10435896 -18.54382689 6.47545004 -28 6 C-28 5.34 -28 4.68 -28 4 C-29.32 3.67 -30.64 3.34 -32 3 C-21.27868707 1.26912973 -10.87111371 -0.17534054 0 0 Z " fill="#4E5E6B" transform="translate(262,72)"/>
<path d="M0 0 C2 2 2 2 3 5 C2.01 5.33 1.02 5.66 0 6 C-1.23375064 6.50987981 -2.46288115 7.03106163 -3.6875 7.5625 C-5.3271875 8.2740625 -5.3271875 8.2740625 -7 9 C-7 8.01 -7 7.02 -7 6 C-8.65 6.66 -10.3 7.32 -12 8 C-12 12.29 -12 16.58 -12 21 C-10.35 20.67 -8.7 20.34 -7 20 C-5.0003559 19.96227087 -2.99945939 19.95350094 -1 20 C-3.37555161 22.37555161 -4.30296994 22.36834858 -7.5625 22.6875 C-8.36816406 22.77386719 -9.17382812 22.86023438 -10.00390625 22.94921875 C-10.66261719 22.96597656 -11.32132812 22.98273438 -12 23 C-13 22 -13 22 -13.09765625 18.18359375 C-13.09098089 16.60153318 -13.07901875 15.01948841 -13.0625 13.4375 C-13.05798828 12.63119141 -13.05347656 11.82488281 -13.04882812 10.99414062 C-13.03700518 8.99606244 -13.01906914 6.99802217 -13 5 C-12.39671875 4.80664062 -11.7934375 4.61328125 -11.171875 4.4140625 C-10.37265625 4.15367187 -9.5734375 3.89328125 -8.75 3.625 C-7.96109375 3.36976563 -7.1721875 3.11453125 -6.359375 2.8515625 C-4.13372042 2.04826333 -2.09068328 1.10288338 0 0 Z " fill="#112F49" transform="translate(268,256)"/>
<path d="M0 0 C-0.875 4.75 -0.875 4.75 -2 7 C-4.0625 7.625 -4.0625 7.625 -6 8 C-6.33 7.34 -6.66 6.68 -7 6 C-8.65 6.33 -10.3 6.66 -12 7 C-12 7.66 -12 8.32 -12 9 C-12.99 9 -13.98 9 -15 9 C-15.33 9.66 -15.66 10.32 -16 11 C-16.66 11 -17.32 11 -18 11 C-19.56266521 12.099763 -19.56266521 12.099763 -21.125 13.5 C-22.548125 14.7375 -22.548125 14.7375 -24 16 C-20.80462701 8.71900084 -8.1327232 -2.71090773 0 0 Z " fill="#596263" transform="translate(201,160)"/>
<path d="M0 0 C2.64937536 0.43658721 5.09469424 0.53581782 7.7734375 0.45703125 C7.7734375 1.11703125 7.7734375 1.77703125 7.7734375 2.45703125 C8.7634375 2.45703125 9.7534375 2.45703125 10.7734375 2.45703125 C12.03008728 5.36303386 12.7734375 7.25307709 12.7734375 10.45703125 C11.8453125 9.52890625 10.9171875 8.60078125 9.9609375 7.64453125 C4.79043814 3.24543704 -1.15089215 1.49262662 -7.91015625 1.43359375 C-12.87378712 1.84156341 -17.50030787 2.91586126 -22.2265625 4.45703125 C-22.2265625 3.46703125 -22.2265625 2.47703125 -22.2265625 1.45703125 C-15.54980458 -3.31208155 -7.66040357 -1.28909939 0 0 Z " fill="#7E8C90" transform="translate(247.2265625,177.54296875)"/>
<path d="M0 0 C2.20392623 0.74666568 4.2321267 1.52231335 6.3125 2.5625 C6.3125 3.2225 6.3125 3.8825 6.3125 4.5625 C7.6325 4.8925 8.9525 5.2225 10.3125 5.5625 C8.6875 6.75 8.6875 6.75 6.3125 7.5625 C3.0625 6.1875 3.0625 6.1875 0.3125 4.5625 C0.3125 3.9025 0.3125 3.2425 0.3125 2.5625 C-2.562391 2.3937433 -5.43738896 2.22742885 -8.3125 2.0625 C-9.12074219 2.01480469 -9.92898437 1.96710938 -10.76171875 1.91796875 C-15.07737631 1.67236222 -19.36253669 1.50651342 -23.6875 1.5625 C-16.6185381 -3.15014127 -7.98499976 -2.38967146 0 0 Z " fill="#182D3A" transform="translate(250.6875,166.4375)"/>
<path d="M0 0 C0.66 0.33 1.32 0.66 2 1 C1.67 2.32 1.34 3.64 1 5 C0.34 5 -0.32 5 -1 5 C-0.01 6.485 -0.01 6.485 1 8 C1 8.99 1 9.98 1 11 C0.01 11 -0.98 11 -2 11 C-2.43342428 19.57216909 -2.42864933 25.5712979 2 33 C1.67 33.66 1.34 34.32 1 35 C-3.96874854 28.37500195 -6.0167754 21.36183948 -5 13 C-3.90070809 8.24112986 -2.72106917 4.08160376 0 0 Z " fill="#808A8E" transform="translate(195,93)"/>
<path d="M0 0 C0.66 0.33 1.32 0.66 2 1 C1.67 6.61 1.34 12.22 1 18 C-2.70152678 18.92538169 -3.63458162 19.08174162 -7 18 C-7 16.35 -7 14.7 -7 13 C-5.68 12.67 -4.36 12.34 -3 12 C-3 10.68 -3 9.36 -3 8 C-2.34 7.67 -1.68 7.34 -1 7 C-0.59270772 4.67843403 -0.25561323 2.3431213 0 0 Z " fill="#182937" transform="translate(223,261)"/>
<path d="M0 0 C2.34576488 1.11291913 3.97143135 2.33553342 6 4 C3 6 3 6 -1 6 C-1.33 4.35 -1.66 2.7 -2 1 C-2.99 1.33 -3.98 1.66 -5 2 C-5 3.32 -5 4.64 -5 6 C-6.65 6.33 -8.3 6.66 -10 7 C-10.66 6.01 -11.32 5.02 -12 4 C-12.33 5.32 -12.66 6.64 -13 8 C-14.32 8.33 -15.64 8.66 -17 9 C-16.06026802 5.61696486 -15.0726148 4.06553043 -12.4375 1.6875 C-8.10908224 -0.43735963 -4.73884932 -0.87850326 0 0 Z " fill="#536677" transform="translate(244,191)"/>
<path d="M0 0 C0 3 0 3 -1.6953125 4.98046875 C-6.63925534 9.47134931 -11.67546841 13.2769548 -17.4375 16.625 C-18.04029785 16.97973389 -18.6430957 17.33446777 -19.26416016 17.69995117 C-20.99609375 18.6640625 -20.99609375 18.6640625 -24 20 C-24.99 19.67 -25.98 19.34 -27 19 C-26.67 18.34 -26.34 17.68 -26 17 C-25.34 16.855625 -24.68 16.71125 -24 16.5625 C-23.34 16.376875 -22.68 16.19125 -22 16 C-21.67 15.01 -21.34 14.02 -21 13 C-21 13.66 -21 14.32 -21 15 C-19.68 14.34 -18.36 13.68 -17 13 C-17 12.34 -17 11.68 -17 11 C-16.34 11 -15.68 11 -15 11 C-15 10.34 -15 9.68 -15 9 C-14.38125 8.87625 -13.7625 8.7525 -13.125 8.625 C-10.80879168 8.12802644 -10.80879168 8.12802644 -9 6 C-8.401875 5.896875 -7.80375 5.79375 -7.1875 5.6875 C-3.95029856 4.67009383 -2.26149067 2.44994823 0 0 Z " fill="#79858D" transform="translate(296,255)"/>
<path d="M0 0 C3.71134205 3.1994328 5.42930118 6.3705719 7 11 C6.6875 13.4375 6.6875 13.4375 6 15 C5.67 13.35 5.34 11.7 5 10 C4.731875 10.61875 4.46375 11.2375 4.1875 11.875 C3 14 3 14 0 16 C-1.5 14.625 -1.5 14.625 -3 13 C-3 12.34 -3 11.68 -3 11 C-3.66 11 -4.32 11 -5 11 C-5 10.34 -5 9.68 -5 9 C-4.34 9 -3.68 9 -3 9 C-3 8.34 -3 7.68 -3 7 C-2.01 7 -1.02 7 0 7 C0.93423645 3.98968256 1.04449911 3.13349732 0 0 Z " fill="#0A305A" transform="translate(273,182)"/>
<path d="M0 0 C0.99 0.33 1.98 0.66 3 1 C2.67 1.66 2.34 2.32 2 3 C1.01 3 0.02 3 -1 3 C-2.04644066 4.63790712 -3.0398183 6.31008021 -4 8 C-7.36138985 11.79511757 -7.36138985 11.79511757 -10.08203125 12.66796875 C-12.38214374 13.93253954 -12.38214374 13.93253954 -12.609375 17.2578125 C-12.65578125 18.53398438 -12.7021875 19.81015625 -12.75 21.125 C-12.80671875 22.40632813 -12.8634375 23.68765625 -12.921875 25.0078125 C-12.94765625 25.99523437 -12.9734375 26.98265625 -13 28 C-13.33 28 -13.66 28 -14 28 C-14.59146086 14.65927166 -14.59146086 14.65927166 -11 9 C-4.19928826 2.09964413 -4.19928826 2.09964413 0 0 Z " fill="#8A939A" transform="translate(227,76)"/>
<path d="M0 0 C0.99 0.99 1.98 1.98 3 3 C3.33 2.34 3.66 1.68 4 1 C4.66 1 5.32 1 6 1 C6.09796875 1.74765625 6.1959375 2.4953125 6.296875 3.265625 C7.36327829 10.52692807 7.36327829 10.52692807 12 16 C12.25 18.75 12.25 18.75 12 21 C8.14651062 17.44600462 5.63036445 14.00526595 3.1875 9.375 C2.58292969 8.24835938 1.97835937 7.12171875 1.35546875 5.9609375 C0 3 0 3 0 0 Z " fill="#526775" transform="translate(169,234)"/>
<path d="M0 0 C0.66 0.33 1.32 0.66 2 1 C2.33 1.99 2.66 2.98 3 4 C1.35 4.33 -0.3 4.66 -2 5 C-2 6.32 -2 7.64 -2 9 C-5 10 -5 10 -7.1875 9.0625 C-7.785625 8.711875 -8.38375 8.36125 -9 8 C-8.67 8.33 -8.34 8.66 -8 9 C-8.99 9.66 -9.98 10.32 -11 11 C-11.66 10.34 -12.32 9.68 -13 9 C-11.8125 6.5 -11.8125 6.5 -10 4 C-7.3125 3.6875 -7.3125 3.6875 -5 4 C-5 3.34 -5 2.68 -5 2 C-2.625 0.9375 -2.625 0.9375 0 0 Z " fill="#15314D" transform="translate(194,165)"/>
<path d="M0 0 C0.33 0 0.66 0 1 0 C2.63814183 5.02537535 3.35343374 9.56896446 3.3125 14.875 C3.31121094 15.57173828 3.30992187 16.26847656 3.30859375 16.98632812 C3.20488556 22.56064312 2.18230853 26.90794676 0 32 C-0.99 31.67 -1.98 31.34 -3 31 C-2 28 -2 28 -0.94970703 26.16503906 C0.24917879 23.43194922 0.22700349 21.3383279 0.1953125 18.359375 C0.18886719 17.28945312 0.18242187 16.21953125 0.17578125 15.1171875 C0.15902344 14.00601563 0.14226562 12.89484375 0.125 11.75 C0.11597656 10.62335938 0.10695313 9.49671875 0.09765625 8.3359375 C0.07410658 5.55707635 0.0412168 2.7786461 0 0 Z " fill="#11283F" transform="translate(296,195)"/>
<path d="M0 0 C2.9375 1.25 2.9375 1.25 6 3 C6.875 5.1875 6.875 5.1875 7 7 C6.01 7.495 6.01 7.495 5 8 C5.11859375 8.85722656 5.2371875 9.71445313 5.359375 10.59765625 C6.17437776 17.82673069 6.50079715 22.13532492 2 28 C1.67 27.01 1.34 26.02 1 25 C1.33 24.34 1.66 23.68 2 23 C2.12541286 20.42466143 2.18517756 17.88808187 2.1875 15.3125 C2.19974609 14.61705078 2.21199219 13.92160156 2.22460938 13.20507812 C2.23796925 8.43560342 1.50161843 4.5285963 0 0 Z " fill="#6D7C86" transform="translate(264,192)"/>
<path d="M0 0 C0.66 0 1.32 0 2 0 C1.49396008 2.16874252 1.00016187 3.99967627 0 6 C1.65 5.01 3.3 4.02 5 3 C5.75 5.75 5.75 5.75 6 9 C4.0625 11.375 4.0625 11.375 2 13 C0 12 0 12 -1.125 8.9375 C-1.558125 7.4834375 -1.558125 7.4834375 -2 6 C-2.66 6 -3.32 6 -4 6 C-2.84826645 3.53199953 -1.95216435 1.95216435 0 0 Z " fill="#082E5A" transform="translate(210,178)"/>
<path d="M0 0 C1.49080078 0.02707031 1.49080078 0.02707031 3.01171875 0.0546875 C3.77097656 0.07789063 4.53023437 0.10109375 5.3125 0.125 C4.3225 0.785 3.3325 1.445 2.3125 2.125 C3.36050781 2.25777344 4.40851563 2.39054688 5.48828125 2.52734375 C6.86720778 2.70557235 8.24611293 2.88396641 9.625 3.0625 C10.31529297 3.14951172 11.00558594 3.23652344 11.71679688 3.32617188 C14.71392288 3.71710135 17.43700119 4.1665004 20.3125 5.125 C20.3125 5.785 20.3125 6.445 20.3125 7.125 C10.44845767 6.04869243 0.93906867 4.59757757 -8.6875 2.125 C-5.26655758 -0.15562828 -4.00562778 -0.09425007 0 0 Z " fill="#132937" transform="translate(229.6875,139.875)"/>
<path d="M0 0 C0.66 0 1.32 0 2 0 C2 0.66 2 1.32 2 2 C4.31 2.33 6.62 2.66 9 3 C8.34 4.98 7.68 6.96 7 9 C7.639375 9.226875 8.27875 9.45375 8.9375 9.6875 C11 11 11 11 11.75 13.625 C11.87375 14.800625 11.87375 14.800625 12 16 C11.01 15.67 10.02 15.34 9 15 C8.71125 14.401875 8.4225 13.80375 8.125 13.1875 C6.64214899 10.30417859 4.53904603 8.98169446 2 7 C0.1875 4.75 0.1875 4.75 -1 3 C-0.34 3 0.32 3 1 3 C0.67 2.01 0.34 1.02 0 0 Z " fill="#1F3B4D" transform="translate(274,157)"/>
<path d="M0 0 C0 3.91012663 -1.55445707 6.69931122 -3.25 10.125 C-3.55035156 10.77082031 -3.85070312 11.41664063 -4.16015625 12.08203125 C-6.47554806 16.78178398 -6.47554806 16.78178398 -9.234375 17.9296875 C-9.81703125 17.95289063 -10.3996875 17.97609375 -11 18 C-10.67 16.02 -10.34 14.04 -10 12 C-9.34 12 -8.68 12 -8 12 C-7.67 10.02 -7.34 8.04 -7 6 C-5.68 5.67 -4.36 5.34 -3 5 C-3 3.68 -3 2.36 -3 1 C-2.01 0.67 -1.02 0.34 0 0 Z " fill="#41525B" transform="translate(195,169)"/>
<path d="M0 0 C2.05279359 4.10558718 2.2216942 5.80206685 2.125 10.25 C2.10695312 11.32765625 2.08890625 12.4053125 2.0703125 13.515625 C2.04710937 14.33546875 2.02390625 15.1553125 2 16 C-2.51477196 15.25521619 -5.31665063 13.76251203 -9 11 C-9.33 10.34 -9.66 9.68 -10 9 C-7.98177083 9.26041667 -5.96354167 9.52083333 -3.9453125 9.78125 C-1.99501656 10.0372485 -1.99501656 10.0372485 0 10 C0 6.7 0 3.4 0 0 Z " fill="#7E8383" transform="translate(222,230)"/>
<path d="M0 0 C-0.47610659 4.99911924 -2.03162219 7.97832683 -5 12 C-5.99 11.67 -6.98 11.34 -8 11 C-7.49396008 8.83125748 -7.00016187 7.00032373 -6 5 C-7.32 4.67 -8.64 4.34 -10 4 C-4.5 0 -4.5 0 0 0 Z " fill="#535F69" transform="translate(213,80)"/>
<path d="M0 0 C1.31999485 3.95998456 0.33101664 5.06928288 -1.5 8.75 C-4.27489796 14.11740826 -7.38664316 18.12368833 -12 22 C-12.33 20.68 -12.66 19.36 -13 18 C-12.34 18 -11.68 18 -11 18 C-11.33 17.01 -11.66 16.02 -12 15 C-11.21625 14.938125 -10.4325 14.87625 -9.625 14.8125 C-8.325625 14.4103125 -8.325625 14.4103125 -7 14 C-5.62533375 11.52363988 -5.62533375 11.52363988 -5 9 C-4.34 9 -3.68 9 -3 9 C-3.33 7.02 -3.66 5.04 -4 3 C-3.01 2.67 -2.02 2.34 -1 2 C-0.67 1.34 -0.34 0.68 0 0 Z " fill="#879598" transform="translate(279,218)"/>
<path d="M0 0 C0.33 0.33 0.66 0.66 1 1 C3.33297433 1.04092937 5.66705225 1.04241723 8 1 C7.67 1.66 7.34 2.32 7 3 C2.92342562 4.20255163 -1.08964742 4.10196591 -5.3125 4.0625 C-6.56675781 4.05347656 -7.82101563 4.04445312 -9.11328125 4.03515625 C-10.06589844 4.02355469 -11.01851562 4.01195312 -12 4 C-12 3.01 -12 2.02 -12 1 C-7.94726192 0.01751804 -4.16464926 -0.16017882 0 0 Z " fill="#132C40" transform="translate(244,130)"/>
<path d="M0 0 C0.33 0 0.66 0 1 0 C1.50389356 7.81035024 0.49050128 14.71775086 -4.6015625 20.96484375 C-6.00347298 22.37672042 -7.49417919 23.69951839 -9 25 C-9.66 24.67 -10.32 24.34 -11 24 C-8.69 21.36 -6.38 18.72 -4 16 C-4.66 15.67 -5.32 15.34 -6 15 C-6 14.34 -6 13.68 -6 13 C-5.34 13 -4.68 13 -4 13 C-3.67 10.36 -3.34 7.72 -3 5 C-2.34 5.66 -1.68 6.32 -1 7 C-0.67 4.69 -0.34 2.38 0 0 Z " fill="#93A2A4" transform="translate(274,62)"/>
<path d="M0 0 C4.68506487 8.43692576 3.11229657 19.64195241 3 29 C2.67 29 2.34 29 2 29 C2 25.04 2 21.08 2 17 C1.34 17 0.68 17 0 17 C-1.8198497 11.54045091 -1.37745568 5.50982274 0 0 Z " fill="#778587" transform="translate(311,187)"/>
<path d="M0 0 C2.31 0.66 4.62 1.32 7 2 C7 1.34 7 0.68 7 0 C8.32 0 9.64 0 11 0 C11.33 1.98 11.66 3.96 12 6 C8.71023192 7.09658936 7.28696233 6.79953138 4 6 C4 5.34 4 4.68 4 4 C3.01 4 2.02 4 1 4 C0.67 2.68 0.34 1.36 0 0 Z " fill="#082D55" transform="translate(254,176)"/>
<path d="M0 0 C2.34917898 2.15341406 3.82443004 4.21667937 5.25 7.0625 C5.60578125 7.75472656 5.9615625 8.44695312 6.328125 9.16015625 C6.54984375 9.76730469 6.7715625 10.37445313 7 11 C6.67 11.66 6.34 12.32 6 13 C3.36 12.34 0.72 11.68 -2 11 C-1.67 10.01 -1.34 9.02 -1 8 C-1 7.01 -1 6.02 -1 5 C-0.68911632 3.32900023 -0.35919668 1.66128463 0 0 Z " fill="#465B6B" transform="translate(301,164)"/>
<path d="M0 0 C-2.90600261 1.25664978 -4.79604584 2 -8 2 C-8 3.32 -8 4.64 -8 6 C-8.99 6 -9.98 6 -11 6 C-11 6.66 -11 7.32 -11 8 C-11.99 7.67 -12.98 7.34 -14 7 C-15.67739862 7.98189187 -17.34467377 8.98133771 -19 10 C-19.66 9.67 -20.32 9.34 -21 9 C-15.96500993 4.10487077 -7.13404041 -2.37801347 0 0 Z " fill="#7E8A8F" transform="translate(232,166)"/>
<path d="M0 0 C1.32 0.33 2.64 0.66 4 1 C4 3.31 4 5.62 4 8 C3.01 8.495 3.01 8.495 2 9 C2 8.34 2 7.68 2 7 C0.35 8.32 -1.3 9.64 -3 11 C-3 10.01 -3 9.02 -3 8 C-3.33 7.01 -3.66 6.02 -4 5 C-2.0625 2.3125 -2.0625 2.3125 0 0 Z " fill="#0C2B54" transform="translate(267,64)"/>
<path d="M0 0 C1.0625 1.875 1.0625 1.875 2 4 C1 6 1 6 -0.9375 8.75 C-3.52167069 12.82202654 -5.26120068 15.99746143 -4.625 20.875 C-4.41875 21.57625 -4.2125 22.2775 -4 23 C-4.66 22.34 -5.32 21.68 -6 21 C-6.66 21.33 -7.32 21.66 -8 22 C-8.66 21.34 -9.32 20.68 -10 20 C-9.34 19.34 -8.68 18.68 -8 18 C-7.27080443 16.34273734 -6.54628927 14.68304219 -5.859375 13.0078125 C-4.65881495 10.20286766 -3.26576442 7.50729539 -1.8671875 4.796875 C-0.87608046 2.84080663 -0.87608046 2.84080663 0 0 Z " fill="#667881" transform="translate(292,224)"/>
<path d="M0 0 C0.33 0 0.66 0 1 0 C1.06058594 0.71285156 1.12117187 1.42570312 1.18359375 2.16015625 C1.26738281 3.11792969 1.35117188 4.07570313 1.4375 5.0625 C1.52515625 6.06539063 1.6128125 7.06828125 1.703125 8.1015625 C1.93769744 10.39173031 2.29152791 12.66965985 2.6875 14.9375 C3.01268918 18.12435394 2.77492506 19.38981609 1 22 C0.67 20.68 0.34 19.36 0 18 C-0.66 18 -1.32 18 -2 18 C-2.125 11.25 -2.125 11.25 -1 9 C-0.77532169 7.46331135 -0.59203195 5.92031946 -0.4375 4.375 C-0.35371094 3.55773437 -0.26992187 2.74046875 -0.18359375 1.8984375 C-0.12300781 1.27195312 -0.06242188 0.64546875 0 0 Z " fill="#0F263A" transform="translate(203,95)"/>
<path d="M0 0 C2.0625 0.4375 2.0625 0.4375 4 1 C4 3.31 4 5.62 4 8 C3.01 8.33 2.02 8.66 1 9 C1 9.99 1 10.98 1 12 C0.01 11.67 -0.98 11.34 -2 11 C-1.85957123 9.35369672 -1.71250671 7.70795821 -1.5625 6.0625 C-1.48128906 5.14597656 -1.40007812 4.22945313 -1.31640625 3.28515625 C-1 1 -1 1 0 0 Z " fill="#0F2641" transform="translate(219,260)"/>
<path d="M0 0 C0.66 1.32 1.32 2.64 2 4 C1.34 4 0.68 4 0 4 C-2.52686664 10.83824362 -3.27766314 15.79862595 -2 23 C-2.66 23 -3.32 23 -4 23 C-5.16571748 19.50284756 -5.2042776 16.62196323 -5.25 12.9375 C-5.27578125 11.68839844 -5.3015625 10.43929687 -5.328125 9.15234375 C-5.21984375 8.11207031 -5.1115625 7.07179687 -5 6 C-4.01 5.34 -3.02 4.68 -2 4 C-0.80767387 1.94996045 -0.80767387 1.94996045 0 0 Z " fill="#102236" transform="translate(232,194)"/>
<path d="M0 0 C0.66 0 1.32 0 2 0 C4.54748246 4.84422847 4.22816428 9.49160376 4.125 14.8125 C4.11597656 15.69615234 4.10695313 16.57980469 4.09765625 17.49023438 C4.07419637 19.66027359 4.03832865 21.83017247 4 24 C3.67 24 3.34 24 3 24 C1.11150323 16.04264468 0.44651878 8.15484303 0 0 Z " fill="#0D2737" transform="translate(276,192)"/>
<path d="M0 0 C0.33 0 0.66 0 1 0 C1.33 3.3 1.66 6.6 2 10 C6.455 9.505 6.455 9.505 11 9 C8 12 8 12 5 14 C3.35 14 1.7 14 0 14 C0 9.38 0 4.76 0 0 Z " fill="#80867F" transform="translate(255,231)"/>
<path d="M0 0 C0.33 0 0.66 0 1 0 C1.19777236 3.3953164 1.38139685 6.79125692 1.5625 10.1875 C1.61857422 11.14720703 1.67464844 12.10691406 1.73242188 13.09570312 C1.78076172 14.02705078 1.82910156 14.95839844 1.87890625 15.91796875 C1.94960327 17.19837036 1.94960327 17.19837036 2.02172852 18.50463867 C1.99892429 21.12353758 1.59213206 23.45403152 1 26 C0.01 26 -0.98 26 -2 26 C-1.34 17.42 -0.68 8.84 0 0 Z " fill="#899196" transform="translate(295,198)"/>
<path d="M0 0 C3.03852705 1.40976705 5.5939595 3.08870228 8.25 5.125 C8.95640625 5.66382813 9.6628125 6.20265625 10.390625 6.7578125 C10.92171875 7.16773438 11.4528125 7.57765625 12 8 C11.34 8.66 10.68 9.32 10 10 C9.113125 9.54625 8.22625 9.0925 7.3125 8.625 C4.57068159 7.27995701 1.84975669 6.08961285 -1 5 C-0.67 3.35 -0.34 1.7 0 0 Z " fill="#162B38" transform="translate(198,247)"/>
<path d="M0 0 C5.45156722 3.27094033 9.61869443 7.41853326 14 12 C13.01 12 12.02 12 11 12 C10.54625 11.525625 10.0925 11.05125 9.625 10.5625 C8.0651868 8.77158307 8.0651868 8.77158307 5.5 8.5625 C3 8 3 8 1.1875 6.1875 C0 4 0 4 0 0 Z " fill="#7A868A" transform="translate(192,239)"/>
<path d="M0 0 C2 1 2 1 2.61889648 2.81933594 C3.22371138 6.28007049 3.10270093 9.74942684 3.0625 13.25 C3.05798828 13.99507812 3.05347656 14.74015625 3.04882812 15.5078125 C3.03709246 17.3385764 3.0191585 19.16929873 3 21 C1.68 20.67 0.36 20.34 -1 20 C-0.66226562 19.16210938 -0.32453125 18.32421875 0.0234375 17.4609375 C1.12640361 13.5520256 1.00512833 10.65436034 0.625 6.625 C0.51414062 5.37976563 0.40328125 4.13453125 0.2890625 2.8515625 C0.19367188 1.91054687 0.09828125 0.96953125 0 0 Z " fill="#0D243D" transform="translate(268,199)"/>
<path d="M0 0 C1.53271273 4.58798777 0.02911182 6.77944742 -2 11 C-2.33 10.01 -2.66 9.02 -3 8 C-3.66 8 -4.32 8 -5 8 C-5.33 9.65 -5.66 11.3 -6 13 C-6.66 13 -7.32 13 -8 13 C-6.63589551 7.40717158 -3.84616474 4.08806189 0 0 Z " fill="#0C2233" transform="translate(182,171)"/>
<path d="M0 0 C2.79297711 0.44099639 5.31340243 1.10446748 8 2 C8.33 3.32 8.66 4.64 9 6 C3.72 5.34 -1.56 4.68 -7 4 C-7 3.67 -7 3.34 -7 3 C-5.5459375 2.5359375 -5.5459375 2.5359375 -4.0625 2.0625 C-1.15934208 1.30476658 -1.15934208 1.30476658 0 0 Z " fill="#0D2534" transform="translate(241,173)"/>
<path d="M0 0 C3.89608498 1.48904175 7.59097018 3.24378713 11.3125 5.125 C12.38113281 5.66382813 13.44976562 6.20265625 14.55078125 6.7578125 C15.76314453 7.37269531 15.76314453 7.37269531 17 8 C13.06329512 9.31223496 10.87511856 8.24296256 7 7 C7 7.66 7 8.32 7 9 C5.0625 8.25 5.0625 8.25 3 7 C2.375 5.0625 2.375 5.0625 2 3 C1.34 2.01 0.68 1.02 0 0 Z " fill="#808E95" transform="translate(206,252)"/>
<path d="M0 0 C0.99 0.33 1.98 0.66 3 1 C3 4.3 3 7.6 3 11 C2.34 11 1.68 11 1 11 C0.67 11.66 0.34 12.32 0 13 C0 12.34 0 11.68 0 11 C-0.8971875 11.3403125 -0.8971875 11.3403125 -1.8125 11.6875 C-2.534375 11.790625 -3.25625 11.89375 -4 12 C-5.75 10.5625 -5.75 10.5625 -7 9 C-5.68 9 -4.36 9 -3 9 C-2.01 8.67 -1.02 8.34 0 8 C0 5.36 0 2.72 0 0 Z " fill="#112636" transform="translate(219,229)"/>
<path d="M0 0 C0.33 0 0.66 0 1 0 C1.33 7.92 1.66 15.84 2 24 C2.99 24.33 3.98 24.66 5 25 C4.67 27.64 4.34 30.28 4 33 C-0.5881757 26.11773645 -0.26997575 17.95019814 -0.125 9.9375 C-0.11597656 8.97650391 -0.10695312 8.01550781 -0.09765625 7.02539062 C-0.07435208 4.68332195 -0.04164058 2.34180208 0 0 Z " fill="#A5AEAC" transform="translate(165,201)"/>
<path d="M0 0 C3.21524305 1.40844718 5.32183868 3.10344786 7.75 5.625 C8.67039062 6.57246094 8.67039062 6.57246094 9.609375 7.5390625 C10.29773438 8.26222656 10.29773438 8.26222656 11 9 C10.67 9.66 10.34 10.32 10 11 C7.50638429 9.79618552 5.31856917 8.54571278 3 7 C3 6.34 3 5.68 3 5 C1.68 5 0.36 5 -1 5 C-0.67 3.35 -0.34 1.7 0 0 Z " fill="#536269" transform="translate(262,171)"/>
<path d="M0 0 C1.65 1.32 3.3 2.64 5 4 C5 3.34 5 2.68 5 2 C6.75 2.125 6.75 2.125 9 3 C11.25 6.0625 11.25 6.0625 13 9 C12.67 9.66 12.34 10.32 12 11 C11.34 10.34 10.68 9.68 10 9 C9.236875 8.731875 8.47375 8.46375 7.6875 8.1875 C4.33210376 6.70488306 2.40125336 4.74428956 0 2 C0 1.34 0 0.68 0 0 Z " fill="#5A6A78" transform="translate(181,255)"/>
<path d="M0 0 C0.33 0 0.66 0 1 0 C1.08112454 2.58396679 1.14054748 5.16537568 1.1875 7.75 C1.22520508 8.84441406 1.22520508 8.84441406 1.26367188 9.9609375 C1.30796024 13.20875129 1.22727093 15.5725142 -0.3125 18.46875 C-2.68856451 20.62480853 -4.86961524 20.72174358 -8 21 C-7.36771484 20.29423828 -7.36771484 20.29423828 -6.72265625 19.57421875 C-6.17480469 18.95160156 -5.62695312 18.32898438 -5.0625 17.6875 C-4.51722656 17.07261719 -3.97195313 16.45773438 -3.41015625 15.82421875 C-0.89776162 12.57411268 -0.76461656 9.28462964 -0.4375 5.3125 C-0.35371094 4.31863281 -0.26992188 3.32476562 -0.18359375 2.30078125 C-0.12300781 1.54152344 -0.06242187 0.78226563 0 0 Z " fill="#8F9B9E" transform="translate(265,51)"/>
<path d="M0 0 C2.50938145 3.76407217 2.5014714 6.64664683 2 11 C1.16485472 14.39368284 0.13734486 17.69628397 -1 21 C-2 18 -3 15 -4 12 C-3.34 11.34 -2.68 10.68 -2 10 C-1.67 10.33 -1.34 10.66 -1 11 C-0.4254048 7.26513121 0 3.78706732 0 0 Z " fill="#7E8B90" transform="translate(252,200)"/>
<path d="M0 0 C0 0.66 0 1.32 0 2 C-0.99 2.33 -1.98 2.66 -3 3 C-4.20882096 5.00016466 -4.20882096 5.00016466 -5 7 C-5.99 7 -6.98 7 -8 7 C-8.33 7.66 -8.66 8.32 -9 9 C-9.66 9 -10.32 9 -11 9 C-12.56266521 10.099763 -12.56266521 10.099763 -14.125 11.5 C-15.07375 12.325 -16.0225 13.15 -17 14 C-14.56073175 8.30837408 -6.56119014 0 0 0 Z " fill="#909A9D" transform="translate(194,162)"/>
<path d="M0 0 C0.33 0.99 0.66 1.98 1 3 C1.66 3 2.32 3 3 3 C2.855625 4.216875 2.71125 5.43375 2.5625 6.6875 C1.88136774 12.7787685 1.44401931 18.88764914 1 25 C0.67 25 0.34 25 0 25 C0 16.75 0 8.5 0 0 Z " fill="#0A1F33" transform="translate(233,263)"/>
<path d="M0 0 C0.33 1.32 0.66 2.64 1 4 C2.32 4 3.64 4 5 4 C5.99 4.33 6.98 4.66 8 5 C7.4409112 8.24271506 6.5867822 9.93057424 4 12 C3.34 12 2.68 12 2 12 C1.61781233 10.34385343 1.28604898 8.67542976 1 7 C1.33 6.67 1.66 6.34 2 6 C1.34 5.67 0.68 5.34 0 5 C0 3.35 0 1.7 0 0 Z " fill="#06223B" transform="translate(167,220)"/>
<path d="M0 0 C1.65 0 3.3 0 5 0 C5.33 2.31 5.66 4.62 6 7 C5.34 6.67 4.68 6.34 4 6 C3.67 6.99 3.34 7.98 3 9 C3.66 9 4.32 9 5 9 C4.67 10.65 4.34 12.3 4 14 C1.37548383 11.37548383 1.4167132 9.5122172 0.875 5.875 C0.70742187 4.77929688 0.53984375 3.68359375 0.3671875 2.5546875 C0.24601563 1.71164063 0.12484375 0.86859375 0 0 Z " fill="#50616D" transform="translate(229,221)"/>
<path d="M0 0 C4.29 0 8.58 0 13 0 C13 0.99 13 1.98 13 3 C9.04 3 5.08 3 1 3 C0.67 2.01 0.34 1.02 0 0 Z " fill="#555F62" transform="translate(232,340)"/>
<path d="M0 0 C0.66 0.33 1.32 0.66 2 1 C1.67 6.61 1.34 12.22 1 18 C-3 19 -3 19 -5.25 18.0625 C-6.11625 17.5365625 -6.11625 17.5365625 -7 17 C-5.02 17 -3.04 17 -1 17 C-0.67 11.39 -0.34 5.78 0 0 Z " fill="#B2B9B9" transform="translate(223,261)"/>
<path d="M0 0 C0.66 0.33 1.32 0.66 2 1 C1.67 4.3 1.34 7.6 1 11 C-0.66666667 11 -2.33333333 11 -4 11 C-3.48964169 6.6109185 -2.47785723 3.66291938 0 0 Z " fill="#0F283E" transform="translate(292,229)"/>
<path d="M0 0 C2.75 0.390625 2.75 0.390625 6 1.25 C7.60875 1.65992188 7.60875 1.65992188 9.25 2.078125 C12 3 12 3 14 5 C7.86946489 5.32712342 3.37330889 5.39366878 -2 2 C-1.34 1.34 -0.68 0.68 0 0 Z " fill="#3C4F58" transform="translate(258,133)"/>
<path d="M0 0 C0.33 0 0.66 0 1 0 C1 5.28 1 10.56 1 16 C2.65 15.67 4.3 15.34 6 15 C7.9996441 14.96227087 10.00054061 14.95350094 12 15 C9.62444839 17.37555161 8.69703006 17.36834858 5.4375 17.6875 C4.63183594 17.77386719 3.82617188 17.86023438 2.99609375 17.94921875 C2.33738281 17.96597656 1.67867188 17.98273438 1 18 C0 17 0 17 -0.09765625 13.18359375 C-0.09098089 11.60153318 -0.07901875 10.01948841 -0.0625 8.4375 C-0.05798828 7.63119141 -0.05347656 6.82488281 -0.04882812 5.99414062 C-0.03700518 3.99606244 -0.01906914 1.99802217 0 0 Z " fill="#9AA29E" transform="translate(255,261)"/>
<path d="M0 0 C0.66 0.33 1.32 0.66 2 1 C2.82106126 4.95602242 3.32739601 8.15055158 2 12 C1.66029927 13.33172531 1.32617417 14.66489727 1 16 C0.30329584 14.21189234 -0.38211189 12.41937948 -1.0625 10.625 C-1.44535156 9.62726563 -1.82820313 8.62953125 -2.22265625 7.6015625 C-3 5 -3 5 -2 3 C-1.34 2.67 -0.68 2.34 0 2 C0 1.34 0 0.68 0 0 Z " fill="#5F7081" transform="translate(292,176)"/>
<path d="M0 0 C1.32 0 2.64 0 4 0 C5.60725635 3.21451269 5.05748185 6.43612536 5 10 C2 9 2 9 0.8125 7.25 C-0.10819096 4.70039426 -0.14948718 2.69076919 0 0 Z " fill="#062333" transform="translate(215,101)"/>
<path d="M0 0 C1.32 0.33 2.64 0.66 4 1 C4.268125 2.134375 4.53625 3.26875 4.8125 4.4375 C5.4003125 6.2009375 5.4003125 6.2009375 6 8 C6.99 8.33 7.98 8.66 9 9 C10.6875 10.5625 10.6875 10.5625 12 12 C11.67 12.99 11.34 13.98 11 15 C6.00041297 11.16604702 2.74222536 7.70382875 0 2 C0 1.34 0 0.68 0 0 Z " fill="#6D787D" transform="translate(201,224)"/>
<path d="M0 0 C0.33 0 0.66 0 1 0 C1 1.98 1 3.96 1 6 C0.34 6 -0.32 6 -1 6 C-1.85257607 9.22596349 -2.4760423 12.46583688 -3.0625 15.75 C-3.23910156 16.73484375 -3.41570312 17.7196875 -3.59765625 18.734375 C-3.73042969 19.48203125 -3.86320313 20.2296875 -4 21 C-4.33 21 -4.66 21 -5 21 C-5.33050781 14.16950529 -4.62376027 8.36683111 -2 2 C-1.34 1.34 -0.68 0.68 0 0 Z " fill="#13232F" transform="translate(204,186)"/>
<path d="M0 0 C2.20914 3.31371 2.22481553 4.3446021 2.125 8.1875 C2.10695313 9.08855469 2.08890625 9.98960937 2.0703125 10.91796875 C2.03550781 11.94857422 2.03550781 11.94857422 2 13 C1.34 13 0.68 13 0 13 C-0.99 9.7 -1.98 6.4 -3 3 C-2.01 2.01 -1.02 1.02 0 0 Z " fill="#07243B" transform="translate(307,179)"/>
<path d="M0 0 C1.65 0 3.3 0 5 0 C5 0.66 5 1.32 5 2 C5.99 2 6.98 2 8 2 C9.25664978 4.90600261 10 6.79604584 10 10 C9.52949219 9.57847656 9.05898438 9.15695313 8.57421875 8.72265625 C7.95160156 8.17480469 7.32898438 7.62695312 6.6875 7.0625 C6.07261719 6.51722656 5.45773438 5.97195312 4.82421875 5.41015625 C2.94758042 3.79918441 2.94758042 3.79918441 0 3 C0 2.01 0 1.02 0 0 Z " fill="#66767F" transform="translate(250,178)"/>
<path d="M0 0 C0.99 0.33 1.98 0.66 3 1 C2.67 1.66 2.34 2.32 2 3 C1.01 3 0.02 3 -1 3 C-2.03789581 4.64333504 -3.03567924 6.31243867 -4 8 C-4.99 8.66 -5.98 9.32 -7 10 C-7 9.34 -7 8.68 -7 8 C-7.66 7.67 -8.32 7.34 -9 7 C-7.87720538 6.01830524 -6.75168527 5.03972702 -5.625 4.0625 C-4.68527344 3.24458984 -4.68527344 3.24458984 -3.7265625 2.41015625 C-2 1 -2 1 0 0 Z " fill="#5F707B" transform="translate(227,76)"/>
<path d="M0 0 C0.66 0 1.32 0 2 0 C1.62257767 6.16456476 -0.15870308 9.17375515 -4 14 C-4.33 13.34 -4.66 12.68 -5 12 C-4.0625 9.375 -4.0625 9.375 -3 7 C-2.34 7 -1.68 7 -1 7 C-1.20625 6.401875 -1.4125 5.80375 -1.625 5.1875 C-2 3 -2 3 0 0 Z " fill="#67777E" transform="translate(303,240)"/>
<path d="M0 0 C1.65 0.33 3.3 0.66 5 1 C4.835 1.763125 4.67 2.52625 4.5 3.3125 C3.90854604 6.03596236 3.90854604 6.03596236 4 9 C3.67 8.67 3.34 8.34 3 8 C2.34 8.66 1.68 9.32 1 10 C-1.09651475 6.54691689 -1.09651475 6.54691689 -0.625 3.875 C-0.41875 3.25625 -0.2125 2.6375 0 2 C0 1.34 0 0.68 0 0 Z " fill="#06203F" transform="translate(297,165)"/>
<path d="M0 0 C0.33 1.32 0.66 2.64 1 4 C0.236875 4.4125 -0.52625 4.825 -1.3125 5.25 C-3.9366642 6.95875809 -5.30321976 8.41017753 -7 11 C-7.3125 7.75 -7.3125 7.75 -7 4 C-3.1025641 0 -3.1025641 0 0 0 Z " fill="#102A3E" transform="translate(263,227)"/>
<path d="M0 0 C1.5625 1 1.5625 1 3 3 C2.96726452 5.76614782 2.49404328 8.26030547 2 11 C1.01 10.01 0.02 9.02 -1 8 C-1.99 8.495 -1.99 8.495 -3 9 C-3 7.68 -3 6.36 -3 5 C-2.34 5 -1.68 5 -1 5 C-0.67 3.35 -0.34 1.7 0 0 Z " fill="#032547" transform="translate(199,94)"/>
<path d="M0 0 C0.66 0 1.32 0 2 0 C1.67 5.61 1.34 11.22 1 17 C-1.23198179 13.65202731 -1.42345786 11.8896203 -1.75 7.9375 C-1.84796875 6.87402344 -1.9459375 5.81054688 -2.046875 4.71484375 C-2 2 -2 2 0 0 Z " fill="#949A9D" transform="translate(205,92)"/>
<path d="M0 0 C0.99 2.97 1.98 5.94 3 9 C-1 8 -1 8 -2.75 5.5625 C-4 3 -4 3 -4 1 C-2 0 -2 0 0 0 Z " fill="#506471" transform="translate(188,226)"/>
<path d="M0 0 C2.64 0.33 5.28 0.66 8 1 C8 0.67 8 0.34 8 0 C9.65 0 11.3 0 13 0 C13 0.66 13 1.32 13 2 C13.66 2.33 14.32 2.66 15 3 C8.77166905 4.2019586 5.62870885 3.93161919 0 1 C0 0.67 0 0.34 0 0 Z " fill="#687480" transform="translate(209,138)"/>
<path d="M0 0 C0.66 0 1.32 0 2 0 C2 3 2 3 0.6875 4.4375 C0.130625 4.953125 -0.42625 5.46875 -1 6 C-1.6496875 7.0828125 -1.6496875 7.0828125 -2.3125 8.1875 C-4 10 -4 10 -7.1875 10.25 C-8.115625 10.1675 -9.04375 10.085 -10 10 C-9.360625 9.525625 -8.72125 9.05125 -8.0625 8.5625 C-5.58174689 6.68314158 -4.59292034 5.48854094 -2.5625 2.9375 C-1.2940625 1.4834375 -1.2940625 1.4834375 0 0 Z " fill="#0A223A" transform="translate(282,245)"/>
<path d="M0 0 C4.43090471 1.20842856 6.98112756 2.51668565 10 6 C8.68 5.67 7.36 5.34 6 5 C5.01 6.485 5.01 6.485 4 8 C4 7.34 4 6.68 4 6 C3.01 5.67 2.02 5.34 1 5 C0.67 3.35 0.34 1.7 0 0 Z " fill="#5F717E" transform="translate(272,138)"/>
<path d="M0 0 C2.475 0.99 2.475 0.99 5 2 C5 3.32 5 4.64 5 6 C5.66 6.66 6.32 7.32 7 8 C5.68 8 4.36 8 3 8 C1.02 4.535 1.02 4.535 -1 1 C-0.67 0.67 -0.34 0.34 0 0 Z " fill="#152538" transform="translate(195,121)"/>
<path d="M0 0 C3 1 3 1 4.75 3.875 C6 7 6 7 5 10 C3.96704564 8.90716423 2.94892165 7.80029421 1.9375 6.6875 C1.36902344 6.07261719 0.80054688 5.45773438 0.21484375 4.82421875 C-0.38650391 3.92123047 -0.38650391 3.92123047 -1 3 C-0.67 2.01 -0.34 1.02 0 0 Z " fill="#112533" transform="translate(181,250)"/>
<path d="M0 0 C1.32 0.33 2.64 0.66 4 1 C4.33 2.65 4.66 4.3 5 6 C3.68 6.33 2.36 6.66 1 7 C0.67 4.69 0.34 2.38 0 0 Z M5 0 C6.5 1.375 6.5 1.375 8 3 C8 3.66 8 4.32 8 5 C7.01 4.67 6.02 4.34 5 4 C5 2.68 5 1.36 5 0 Z " fill="#072F5A" transform="translate(197,114)"/>
<path d="M0 0 C1.125 3.75 1.125 3.75 0 6 C-1.6476038 6.71247732 -3.31763529 7.37400383 -5 8 C-6.33859725 8.65603325 -7.67294976 9.32091246 -9 10 C-8.06862408 8.70391053 -7.1296434 7.41328368 -6.1875 6.125 C-5.66542969 5.40570313 -5.14335937 4.68640625 -4.60546875 3.9453125 C-3 2 -3 2 0 0 Z " fill="#5A6B72" transform="translate(265,221)"/>
<path d="M0 0 C1.0625 1.875 1.0625 1.875 2 4 C1.67 4.66 1.34 5.32 1 6 C0.77377919 7.70363822 0.59111527 9.41328701 0.4375 11.125 C0.31181641 12.49011719 0.31181641 12.49011719 0.18359375 13.8828125 C0.12300781 14.58148438 0.06242188 15.28015625 0 16 C-2 14 -2 14 -2.265625 12.01171875 C-2.23575234 7.56815987 -2.08605145 4.04172469 0 0 Z " fill="#0F253A" transform="translate(169,192)"/>
<path d="M0 0 C3.71134205 3.1994328 5.42930118 6.3705719 7 11 C6.6875 13.4375 6.6875 13.4375 6 15 C5.67 13.35 5.34 11.7 5 10 C4.01 10 3.02 10 2 10 C1.855625 8.906875 1.71125 7.81375 1.5625 6.6875 C1.11711896 3.06877013 1.11711896 3.06877013 0 0 Z " fill="#7F8C90" transform="translate(273,182)"/>
<path d="M0 0 C0.99 0 1.98 0 3 0 C3 0.99 3 1.98 3 3 C2.34 3 1.68 3 1 3 C0.896875 3.78375 0.79375 4.5675 0.6875 5.375 C0 8 0 8 -3 10 C-3 5.66905042 -2.03435531 3.72965139 0 0 Z " fill="#092334" transform="translate(273,224)"/>
<path d="M0 0 C0.33 0.66 0.66 1.32 1 2 C1.66 2 2.32 2 3 2 C5.29013653 5.4352048 5.17842973 6.985331 5 11 C4.67 11 4.34 11 4 11 C3.67 9.35 3.34 7.7 3 6 C2.01 6 1.02 6 0 6 C-0.99 6 -1.98 6 -3 6 C-1.125 1.125 -1.125 1.125 0 0 Z " fill="#435A72" transform="translate(205,182)"/>
<path d="M0 0 C2.31 0.66 4.62 1.32 7 2 C7 3.98 7 5.96 7 8 C6.67 7.01 6.34 6.02 6 5 C5.34 5 4.68 5 4 5 C3.67 5.33 3.34 5.66 3 6 C1.68 5.34 0.36 4.68 -1 4 C-0.67 2.68 -0.34 1.36 0 0 Z " fill="#0A243D" transform="translate(272,154)"/>
<path d="M0 0 C1.49080078 0.02707031 1.49080078 0.02707031 3.01171875 0.0546875 C3.77097656 0.07789063 4.53023437 0.10109375 5.3125 0.125 C4.3225 0.785 3.3325 1.445 2.3125 2.125 C3.3025 2.785 4.2925 3.445 5.3125 4.125 C-4.09752278 3.16144647 -4.09752278 3.16144647 -8.6875 2.125 C-5.26655758 -0.15562828 -4.00562778 -0.09425007 0 0 Z " fill="#082135" transform="translate(229.6875,139.875)"/>
<path d="M0 0 C0.33 0.66 0.66 1.32 1 2 C2.32 1.34 3.64 0.68 5 0 C5.66 0.66 6.32 1.32 7 2 C5.56988027 2.86646667 4.13059381 3.71781829 2.6875 4.5625 C1.48673828 5.27599609 1.48673828 5.27599609 0.26171875 6.00390625 C-2 7 -2 7 -5 6 C-4.67 5.34 -4.34 4.68 -4 4 C-1.9375 3.375 -1.9375 3.375 0 3 C0 2.01 0 1.02 0 0 Z " fill="#737B82" transform="translate(274,268)"/>
<path d="M0 0 C0.99 0.33 1.98 0.66 3 1 C3 1.66 3 2.32 3 3 C3.66 3 4.32 3 5 3 C4.1875 4.9375 4.1875 4.9375 3 7 C2.01 7.33 1.02 7.66 0 8 C0.66 6.02 1.32 4.04 2 2 C0.02 3.32 -1.96 4.64 -4 6 C-2.84826645 3.53199953 -1.95216435 1.95216435 0 0 Z " fill="#485D73" transform="translate(210,176)"/>
<path d="M0 0 C1.49076829 0.87639106 2.96733869 1.77696328 4.4375 2.6875 C5.67306641 3.43580078 5.67306641 3.43580078 6.93359375 4.19921875 C9.43719323 6.38099448 9.69593558 7.75480334 10 11 C9.01 10.67 8.02 10.34 7 10 C6.71125 9.401875 6.4225 8.80375 6.125 8.1875 C4.65254101 5.3243853 2.50104606 3.97451005 0 2 C0 1.34 0 0.68 0 0 Z " fill="#848F95" transform="translate(276,162)"/>
<path d="M0 0 C-0.33 0.99 -0.66 1.98 -1 3 C-1.66 3 -2.32 3 -3 3 C-3 6.96 -3 10.92 -3 15 C-3.66 15 -4.32 15 -5 15 C-5.08078641 12.87561661 -5.13909141 10.7503677 -5.1875 8.625 C-5.22230469 7.44164062 -5.25710937 6.25828125 -5.29296875 5.0390625 C-5.19628906 4.03617187 -5.09960938 3.03328125 -5 2 C-2 0 -2 0 0 0 Z " fill="#10253A" transform="translate(261,262)"/>
<path d="M0 0 C0.66 0 1.32 0 2 0 C2.125 6.625 2.125 6.625 1 10 C0.34 9.67 -0.32 9.34 -1 9 C-1.75 6.125 -1.75 6.125 -2 3 C-1.34 2.01 -0.68 1.02 0 0 Z " fill="#0A243C" transform="translate(172,185)"/>
<path d="M0 0 C1.32 0.66 2.64 1.32 4 2 C3.01 2 2.02 2 1 2 C1 2.66 1 3.32 1 4 C-4.75 7 -4.75 7 -7 7 C-7 5.68 -7 4.36 -7 3 C-5.5459375 2.814375 -5.5459375 2.814375 -4.0625 2.625 C-2.5465625 2.315625 -2.5465625 2.315625 -1 2 C-0.67 1.34 -0.34 0.68 0 0 Z " fill="#657277" transform="translate(231,90)"/>
<path d="M0 0 C2.9375 1.0625 2.9375 1.0625 6 3 C6.875 6.6875 6.875 6.6875 7 10 C3.60582235 6.87378374 1.3937282 4.43458973 0 0 Z " fill="#7F8D92" transform="translate(174,245)"/>
<path d="M0 0 C-1.98 0.99 -1.98 0.99 -4 2 C-3.34 2.66 -2.68 3.32 -2 4 C-5.3 4 -8.6 4 -12 4 C-12 3.01 -12 2.02 -12 1 C-7.9472484 0.01751476 -4.16138263 -0.08159574 0 0 Z " fill="#062340" transform="translate(244,130)"/>
<path d="M0 0 C1.43793392 0.31049726 2.8753318 0.6234776 4.3125 0.9375 C5.11300781 1.11152344 5.91351563 1.28554687 6.73828125 1.46484375 C9 2 9 2 12 3 C12.6875 5.0625 12.6875 5.0625 13 7 C8.50202887 5.31326082 4.27113698 3.18326108 0 1 C0 0.67 0 0.34 0 0 Z " fill="#B1B9BB" transform="translate(257,151)"/>
<path d="M0 0 C2 3 2 3 2 5 C1.01 5 0.02 5 -1 5 C-1 5.66 -1 6.32 -1 7 C-2.65 7.33 -4.3 7.66 -6 8 C-4.55746343 4.63408134 -2.66735273 2.48952921 0 0 Z " fill="#5A6F75" transform="translate(202,85)"/>
<path d="M0 0 C2.39073445 3.82517513 2.55966552 7.59665524 3 12 C2.01 11.67 1.02 11.34 0 11 C-1.28571429 3.57142857 -1.28571429 3.57142857 0 0 Z " fill="#112939" transform="translate(201,213)"/>
<path d="M0 0 C1.65 0 3.3 0 5 0 C5 0.66 5 1.32 5 2 C6.32 2.33 7.64 2.66 9 3 C7.375 4.1875 7.375 4.1875 5 5 C1.75 3.625 1.75 3.625 -1 2 C-0.67 1.34 -0.34 0.68 0 0 Z " fill="#0B233A" transform="translate(252,169)"/>
<path d="M0 0 C0.99 0 1.98 0 3 0 C2.34 3.63 1.68 7.26 1 11 C0.67 11 0.34 11 0 11 C0 9.02 0 7.04 0 5 C-0.66 5 -1.32 5 -2 5 C-2 4.34 -2 3.68 -2 3 C-1.34 3 -0.68 3 0 3 C0 2.01 0 1.02 0 0 Z " fill="#6A7C85" transform="translate(247,221)"/>
<path d="M0 0 C0.66 0 1.32 0 2 0 C2.66 2.97 3.32 5.94 4 9 C3.01 9.33 2.02 9.66 1 10 C-1.42857143 3.71428571 -1.42857143 3.71428571 0 0 Z " fill="#0A2132" transform="translate(182,218)"/>
<path d="M0 0 C2.96404505 2.80804268 5.44499019 5.18315774 7 9 C4.69 8.01 2.38 7.02 0 6 C0 4.02 0 2.04 0 0 Z " fill="#6B7B82" transform="translate(292,152)"/>
<path d="M0 0 C0.66 0.99 1.32 1.98 2 3 C1.125 5.6875 1.125 5.6875 0 8 C-0.66 8 -1.32 8 -2 8 C-2.33 8.66 -2.66 9.32 -3 10 C-3.33 9.01 -3.66 8.02 -4 7 C-3.34 7 -2.68 7 -2 7 C-2.04125 6.21625 -2.0825 5.4325 -2.125 4.625 C-2 2 -2 2 0 0 Z " fill="#0C2738" transform="translate(198,91)"/>
<path d="M0 0 C-0.33 1.32 -0.66 2.64 -1 4 C-1.33 3.34 -1.66 2.68 -2 2 C-2.33 2.66 -2.66 3.32 -3 4 C-5.32156597 4.40729228 -7.6568787 4.74438677 -10 5 C-5.16129032 0 -5.16129032 0 0 0 Z " fill="#9CA09B" transform="translate(213,80)"/>
<path d="M0 0 C0.33 0 0.66 0 1 0 C1.268125 1.051875 1.53625 2.10375 1.8125 3.1875 C2.8201548 6.951236 2.8201548 6.951236 4.6875 9.8125 C5.3371875 10.8953125 5.3371875 10.8953125 6 12 C5.67 12.66 5.34 13.32 5 14 C0.17970402 10.26427061 0.17970402 10.26427061 -0.33203125 6.6640625 C-0.31436669 4.4241967 -0.21850902 2.22879201 0 0 Z " fill="#ACB6B8" transform="translate(212,212)"/>
<path d="M0 0 C0.33 1.32 0.66 2.64 1 4 C0.195625 4.12375 -0.60875 4.2475 -1.4375 4.375 C-2.7059375 4.684375 -2.7059375 4.684375 -4 5 C-4.33 5.66 -4.66 6.32 -5 7 C-5.33 6.01 -5.66 5.02 -6 4 C-3.94766315 1.7522025 -2.99332739 0.9977758 0 0 Z " fill="#112339" transform="translate(218,172)"/>
<path d="M0 0 C2.97 0.495 2.97 0.495 6 1 C6 1.99 6 2.98 6 4 C6.66 4.33 7.32 4.66 8 5 C6.25 5.75 6.25 5.75 4 6 C1.75 4.1875 1.75 4.1875 0 2 C0 1.34 0 0.68 0 0 Z " fill="#7C8386" transform="translate(197,128)"/>
<path d="M0 0 C0.99 0.33 1.98 0.66 3 1 C2.34 3.97 1.68 6.94 1 10 C0.34 9.34 -0.32 8.68 -1 8 C-0.96712417 5.27130593 -0.43602229 2.7033382 0 0 Z " fill="#152737" transform="translate(215,90)"/>
<path d="M0 0 C3.93846154 4.30769231 3.93846154 4.30769231 4.25 7.8125 C4.1675 8.534375 4.085 9.25625 4 10 C2 8.375 2 8.375 0 6 C-0.25 2.75 -0.25 2.75 0 0 Z " fill="#0C233C" transform="translate(205,224)"/>
<path d="M0 0 C2.375 -0.1875 2.375 -0.1875 5 0 C5.66 0.99 6.32 1.98 7 3 C4.69 3.33 2.38 3.66 0 4 C0 2.68 0 1.36 0 0 Z " fill="#3F4F5A" transform="translate(243,193)"/>
<path d="M0 0 C0.66 0 1.32 0 2 0 C1.43628586 3.26954202 0.50037734 4.82575883 -2 7 C-2.66 6.67 -3.32 6.34 -4 6 C-2.84826645 3.53199953 -1.95216435 1.95216435 0 0 Z " fill="#0F273C" transform="translate(210,178)"/>
<path d="M0 0 C3.16115776 1.36983503 3.9927092 1.9890638 6 5 C3.69 5 1.38 5 -1 5 C-0.67 3.35 -0.34 1.7 0 0 Z " fill="#596B7B" transform="translate(262,171)"/>
<path d="M0 0 C-0.99 0.495 -0.99 0.495 -2 1 C-2 1.66 -2 2.32 -2 3 C-4.97 2.505 -4.97 2.505 -8 2 C-8 1.34 -8 0.68 -8 0 C-5.13822943 -1.43088528 -3.06624227 -0.59991697 0 0 Z " fill="#616F74" transform="translate(256,147)"/>
<path d="M0 0 C1.98 0 3.96 0 6 0 C6 1.32 6 2.64 6 4 C3.03 3.505 3.03 3.505 0 3 C0 2.01 0 1.02 0 0 Z " fill="#0F283F" transform="translate(266,138)"/>
<path d="M0 0 C1.32 0.33 2.64 0.66 4 1 C4 2.32 4 3.64 4 5 C2.02 5 0.04 5 -2 5 C-1.34 3.35 -0.68 1.7 0 0 Z " fill="#04223B" transform="translate(210,119)"/>
<path d="M0 0 C0.33 0.66 0.66 1.32 1 2 C2.093125 1.79375 3.18625 1.5875 4.3125 1.375 C8 1 8 1 11 3 C9.741875 3.185625 8.48375 3.37125 7.1875 3.5625 C6.12595703 3.71912109 6.12595703 3.71912109 5.04296875 3.87890625 C3 4 3 4 0 3 C0 2.01 0 1.02 0 0 Z " fill="#304655" transform="translate(258,273)"/>
<path d="M0 0 C-4.75 4 -4.75 4 -7 4 C-7 2.68 -7 1.36 -7 0 C-3.86650268 -1.04449911 -3.01031744 -0.93423645 0 0 Z " fill="#546268" transform="translate(263,260)"/>
<path d="M0 0 C0 1.98 0 3.96 0 6 C-0.33 5.34 -0.66 4.68 -1 4 C-1.66 4 -2.32 4 -3 4 C-3.33 4.66 -3.66 5.32 -4 6 C-4.66 5.34 -5.32 4.68 -6 4 C-2.25 0 -2.25 0 0 0 Z " fill="#112E42" transform="translate(247,226)"/>
<path d="M0 0 C0.61875 0.33 1.2375 0.66 1.875 1 C3.91018344 2.14193235 3.91018344 2.14193235 6 2 C6.33 1.34 6.66 0.68 7 0 C7.66 1.32 8.32 2.64 9 4 C6.36 4.33 3.72 4.66 1 5 C0.67 3.35 0.34 1.7 0 0 Z " fill="#0C2E53" transform="translate(205,220)"/>
<path d="M0 0 C0.99 0 1.98 0 3 0 C2.67 3.3 2.34 6.6 2 10 C0 8 0 8 -0.1953125 6.0546875 C-0.13020833 4.03645833 -0.06510417 2.01822917 0 0 Z " fill="#0A2335" transform="translate(309,216)"/>
<path d="M0 0 C0 4.24645065 -1.81750806 6.38524772 -4 10 C-4.33 10 -4.66 10 -5 10 C-5 8.35 -5 6.7 -5 5 C-4.34 5 -3.68 5 -3 5 C-3 3.68 -3 2.36 -3 1 C-2.01 0.67 -1.02 0.34 0 0 Z " fill="#8D989B" transform="translate(195,169)"/>
<path d="M0 0 C2.5654594 2.5654594 2.54046087 4.47686668 3 8 C2.01 8.33 1.02 8.66 0 9 C-0.84454356 5.62182575 -1.10844919 3.32534757 0 0 Z " fill="#153148" transform="translate(193,112)"/>
<path d="M0 0 C0.66 0.33 1.32 0.66 2 1 C3 4 3 4 2.0625 6.1875 C1.5365625 7.0846875 1.5365625 7.0846875 1 8 C0.01 6.02 -0.98 4.04 -2 2 C-1.34 2 -0.68 2 0 2 C0 1.34 0 0.68 0 0 Z " fill="#0E2A53" transform="translate(201,90)"/>
<path d="M0 0 C0.66 0.33 1.32 0.66 2 1 C-0.625 5.875 -0.625 5.875 -4 7 C-4.66 6.34 -5.32 5.68 -6 5 C-5.01 4.34 -4.02 3.68 -3 3 C-1.98131338 2.01904252 -0.97648017 1.02297922 0 0 Z " fill="#1C3246" transform="translate(264,81)"/>
<path d="M0 0 C1.98 0.495 1.98 0.495 4 1 C2.63016497 4.16115776 2.0109362 4.9927092 -1 7 C-1 5.68 -1 4.36 -1 3 C-0.34 3 0.32 3 1 3 C0.67 2.01 0.34 1.02 0 0 Z " fill="#59676E" transform="translate(267,233)"/>
<path d="M0 0 C0.66 0.66 1.32 1.32 2 2 C1.625 4.625 1.625 4.625 1 7 C0.34 7 -0.32 7 -1 7 C-1.33 7.66 -1.66 8.32 -2 9 C-2.33 8.01 -2.66 7.02 -3 6 C-2.34 6 -1.68 6 -1 6 C-0.67 4.02 -0.34 2.04 0 0 Z " fill="#0C2437" transform="translate(308,225)"/>
<path d="M0 0 C2.5 2.25 2.5 2.25 5 5 C5 6.32 5 7.64 5 9 C4.34 9 3.68 9 3 9 C2.01 6.03 1.02 3.06 0 0 Z " fill="#122A3B" transform="translate(213,221)"/>
<path d="M0 0 C3.875 1.75 3.875 1.75 5 4 C3.35 4.33 1.7 4.66 0 5 C-0.5625 3.0625 -0.5625 3.0625 -1 1 C-0.67 0.67 -0.34 0.34 0 0 Z " fill="#546069" transform="translate(282,144)"/>
<path d="M0 0 C0 1.98 0 3.96 0 6 C-1.98 6 -3.96 6 -6 6 C-5.01 5.67 -4.02 5.34 -3 5 C-3 3.68 -3 2.36 -3 1 C-1 0 -1 0 0 0 Z " fill="#172E42" transform="translate(223,268)"/>
<path d="M0 0 C1.65 0.33 3.3 0.66 5 1 C5 2.32 5 3.64 5 5 C2.525 4.01 2.525 4.01 0 3 C0 2.01 0 1.02 0 0 Z " fill="#67767E" transform="translate(195,266)"/>
<path d="M0 0 C0.99 0 1.98 0 3 0 C2.67 1.98 2.34 3.96 2 6 C1.01 6 0.02 6 -1 6 C-1.042721 4.33388095 -1.04063832 2.66617115 -1 1 C-0.67 0.67 -0.34 0.34 0 0 Z " fill="#233B4D" transform="translate(296,249)"/>
<path d="M0 0 C1.74627478 2.61941217 2.38722388 4.03824877 3 7 C2.01 7.33 1.02 7.66 0 8 C-0.79953138 4.71303767 -1.09658936 3.28976808 0 0 Z " fill="#08243E" transform="translate(299,240)"/>
<path d="M0 0 C1 3 1 3 0.0625 5.1875 C-0.4634375 6.0846875 -0.4634375 6.0846875 -1 7 C-1.66 6.67 -2.32 6.34 -3 6 C-2.625 3.5625 -2.625 3.5625 -2 1 C-1.34 0.67 -0.68 0.34 0 0 Z " fill="#102838" transform="translate(250,215)"/>
<path d="M0 0 C0.66 0.33 1.32 0.66 2 1 C1.60196439 3.88575819 1.20990931 4.82189513 -1.0625 6.75 C-1.701875 7.1625 -2.34125 7.575 -3 8 C-2.74438677 5.6568787 -2.40729228 3.32156597 -2 1 C-1.34 0.67 -0.68 0.34 0 0 Z " fill="#022342" transform="translate(207,187)"/>
<path d="M0 0 C5.57142857 5.14285714 5.57142857 5.14285714 6 9 C5.67 8.34 5.34 7.68 5 7 C4.34 7 3.68 7 3 7 C0.70351351 4.4385343 0 3.52032428 0 0 Z " fill="#0C1B29" transform="translate(269,179)"/>
<path d="M0 0 C1.32 0.33 2.64 0.66 4 1 C4.33 2.65 4.66 4.3 5 6 C4.01 5.67 3.02 5.34 2 5 C0.8125 2.4375 0.8125 2.4375 0 0 Z " fill="#23312D" transform="translate(215,105)"/>
<path d="M0 0 C0.66 0.33 1.32 0.66 2 1 C1.67 2.32 1.34 3.64 1 5 C0.34 5 -0.32 5 -1 5 C-1.33 5.99 -1.66 6.98 -2 8 C-2.33 7.01 -2.66 6.02 -3 5 C-1.5625 2.3125 -1.5625 2.3125 0 0 Z " fill="#7E8989" transform="translate(195,93)"/>
<path d="M0 0 C0.33 0.66 0.66 1.32 1 2 C-0.65 3.98 -2.3 5.96 -4 8 C-4.66 7.67 -5.32 7.34 -6 7 C-2.25 1.125 -2.25 1.125 0 0 Z " fill="#0D1E24" transform="translate(270,76)"/>
<path d="M0 0 C0.33 0 0.66 0 1 0 C1.22174933 1.45635371 1.42698698 2.91522956 1.625 4.375 C1.74101562 5.18710937 1.85703125 5.99921875 1.9765625 6.8359375 C1.98429688 7.55007813 1.99203125 8.26421875 2 9 C1.34 9.66 0.68 10.32 0 11 C0 10.34 0 9.68 0 9 C-0.66 8.67 -1.32 8.34 -2 8 C-1.34 5.36 -0.68 2.72 0 0 Z " fill="#203545" transform="translate(245,331)"/>
<path d="M0 0 C2.64 0 5.28 0 8 0 C8 0.99 8 1.98 8 3 C2.25 2.25 2.25 2.25 0 0 Z " fill="#8B9796" transform="translate(208,275)"/>
<path d="M0 0 C3.16115776 1.36983503 3.9927092 1.9890638 6 5 C5.01 5 4.02 5 3 5 C2.67 4.34 2.34 3.68 2 3 C-0.52733235 2.34444881 -0.52733235 2.34444881 -3 2 C-2.01 1.34 -1.02 0.68 0 0 Z " fill="#0C1F33" transform="translate(285,148)"/>
</svg>
